<?xml version="1.0" standalone="no"?>
<!DOCTYPE svg PUBLIC "-//W3C//DTD SVG 20010904//EN"
 "http://www.w3.org/TR/2001/REC-SVG-20010904/DTD/svg10.dtd">
<svg version="1.0" xmlns="http://www.w3.org/2000/svg"
 width="1254.000000pt" height="1254.000000pt" viewBox="0 0 1254.000000 1254.000000"
 preserveAspectRatio="xMidYMid meet">

<g transform="translate(0.000000,1254.000000) scale(0.100000,-0.100000)"
fill="#000000" stroke="none">
<path d="M6250 10016 c-38 -10 -318 -160 -620 -331 -154 -87 -407 -225 -888
-484 -83 -46 -157 -91 -162 -101 -6 -11 -10 -128 -10 -287 0 -223 3 -272 15
-290 8 -12 81 -60 162 -106 82 -47 186 -107 233 -134 47 -27 144 -83 215 -125
72 -41 234 -135 360 -208 523 -303 677 -389 713 -395 38 -6 127 9 147 24 5 5
147 87 315 183 832 478 1262 732 1279 758 13 20 17 62 19 255 2 126 -1 255 -5
285 l-8 55 -300 163 c-165 90 -530 291 -812 447 -281 157 -523 287 -537 290
-61 12 -73 13 -116 1z m208 -810 c280 -152 570 -312 593 -327 13 -9 22 -19 19
-21 -3 -2 -84 -49 -180 -103 -96 -55 -264 -150 -373 -212 -109 -62 -203 -113
-209 -113 -14 0 -62 26 -460 252 -175 99 -316 184 -313 188 3 4 85 50 182 103
98 52 266 143 373 201 107 58 203 105 213 106 9 0 79 -33 155 -74z"/>
<path d="M2956 9035 c-47 -17 -94 -59 -112 -102 -34 -80 -3 -194 65 -237 24
-16 147 -51 377 -107 l342 -82 102 -341 c126 -420 591 -1962 658 -2181 60
-198 76 -228 161 -318 100 -105 192 -154 369 -197 23 -6 42 -14 42 -18 0 -4
-26 -20 -59 -35 -117 -54 -223 -177 -256 -301 -23 -86 -17 -218 15 -299 50
-130 163 -237 295 -280 236 -75 495 39 586 258 l23 55 728 0 c687 0 728 -1
728 -17 0 -61 94 -188 178 -242 296 -190 686 -13 735 334 28 203 -81 408 -263
492 -33 16 -58 32 -57 37 2 6 36 18 76 28 103 25 205 82 277 153 100 99 124
151 213 446 80 268 301 989 482 1579 93 299 100 328 90 362 -15 50 -53 78
-105 78 -33 0 -67 -15 -179 -81 -75 -45 -142 -90 -148 -101 -6 -11 -55 -171
-109 -356 -54 -185 -169 -573 -255 -862 -86 -289 -171 -572 -188 -630 -27 -89
-38 -111 -72 -145 -23 -23 -58 -46 -81 -53 -32 -9 -342 -12 -1345 -12 l-1304
0 -52 24 c-48 23 -113 91 -113 119 0 5 -65 224 -144 486 -80 262 -193 636
-251 831 -59 195 -173 576 -255 845 -82 270 -154 508 -159 531 -13 48 -46 100
-81 126 -24 18 -852 228 -895 227 -11 0 -37 -6 -59 -14z m4354 -3575 c18 -11
18 -11 -50 -42 -82 -38 -151 -98 -190 -167 l-35 -60 -747 -1 -748 0 -20 40
c-30 59 -117 140 -190 179 -80 42 -78 40 -60 51 20 13 2020 13 2040 0z m-2147
-281 c47 -13 106 -63 123 -106 8 -18 14 -55 14 -84 0 -177 -209 -261 -336
-134 -101 102 -63 272 72 320 47 17 77 18 127 4z m2368 -4 c80 -29 128 -98
129 -188 1 -159 -186 -250 -313 -153 -54 41 -77 88 -77 154 0 91 46 159 126
187 51 18 82 18 135 0z"/>
<path d="M7785 8144 c-88 -53 -326 -193 -530 -312 -203 -118 -449 -261 -545
-318 -96 -56 -175 -106 -175 -112 0 -6 -4 -14 -9 -19 -5 -5 -6 -3 -2 5 12 20
-6 14 -77 -28 -79 -46 -135 -63 -180 -56 l-32 5 33 -11 c36 -12 33 15 37 -288
1 -80 2 -165 3 -189 l2 -43 38 7 c20 3 133 63 252 135 348 207 479 284 585
345 417 241 490 285 487 295 -1 6 2 9 8 5 13 -8 52 14 45 25 -3 6 0 8 7 5 19
-7 251 130 265 157 18 32 18 459 1 476 -23 23 -54 11 -213 -84z"/>
<path d="M4671 8213 c6 -11 21 -20 33 -21 22 -1 17 4 -27 29 -16 9 -16 8 -6
-8z"/>
<path d="M4570 8085 c0 -48 4 -74 10 -70 6 3 10 35 10 70 0 35 -4 67 -10 70
-6 4 -10 -22 -10 -70z"/>
<path d="M4857 8109 c7 -7 15 -10 18 -7 3 3 -2 9 -12 12 -14 6 -15 5 -6 -5z"/>
<path d="M4571 7865 c0 -38 4 -77 9 -85 12 -19 12 106 0 135 -6 14 -9 -2 -9
-50z"/>
<path d="M5230 7896 c0 -3 9 -10 20 -16 11 -6 20 -8 20 -6 0 3 -9 10 -20 16
-11 6 -20 8 -20 6z"/>
<path d="M5435 7773 c6 -6 28 -20 50 -32 22 -13 31 -15 20 -6 -22 18 -86 53
-70 38z"/>
<path d="M4630 7726 c0 -3 9 -10 20 -16 11 -6 20 -8 20 -6 0 3 -9 10 -20 16
-11 6 -20 8 -20 6z"/>
<path d="M4685 7693 c15 -15 105 -66 105 -59 0 3 -14 13 -30 21 -17 9 -28 20
-25 25 3 5 0 12 -6 16 -8 4 -9 3 -5 -4 9 -15 1 -15 -27 -1 -12 6 -17 7 -12 2z"/>
<path d="M5670 7636 c0 -3 9 -10 20 -16 11 -6 20 -8 20 -6 0 3 -9 10 -20 16
-11 6 -20 8 -20 6z"/>
<path d="M5720 7606 c0 -3 9 -10 20 -16 11 -6 20 -8 20 -6 0 3 -9 10 -20 16
-11 6 -20 8 -20 6z"/>
<path d="M4979 7523 c32 -24 141 -85 141 -80 0 5 -48 34 -130 79 -30 16 -31
17 -11 1z"/>
<path d="M5860 7526 c0 -3 9 -10 20 -16 11 -6 20 -8 20 -6 0 3 -9 10 -20 16
-11 6 -20 8 -20 6z"/>
<path d="M5250 7366 c0 -3 9 -10 20 -16 11 -6 20 -8 20 -6 0 3 -9 10 -20 16
-11 6 -20 8 -20 6z"/>
<path d="M5320 7326 c0 -3 9 -10 20 -16 11 -6 20 -8 20 -6 0 3 -9 10 -20 16
-11 6 -20 8 -20 6z"/>
<path d="M4751 4128 c-85 -42 -106 -162 -40 -228 77 -77 204 -53 245 46 30 72
1 149 -68 183 -56 27 -82 26 -137 -1z"/>
<path d="M2800 3470 l0 -650 135 0 135 0 0 220 0 220 181 0 c198 0 286 14 373
57 121 61 200 182 212 324 19 233 -107 412 -328 464 -49 11 -136 15 -385 15
l-323 0 0 -650z m631 409 c109 -37 159 -136 125 -252 -18 -60 -42 -87 -106
-116 -39 -18 -66 -21 -212 -21 l-168 0 0 200 0 200 164 0 c95 0 177 -5 197
-11z"/>
<path d="M6300 3890 l0 -130 -85 0 -85 0 0 -105 0 -105 84 0 85 0 3 -262 c5
-300 10 -327 81 -397 60 -60 129 -83 247 -83 52 0 115 5 139 12 41 11 43 13
37 42 -3 17 -6 63 -6 102 l0 71 -90 0 c-84 0 -91 2 -117 28 l-28 27 -3 230 -3
230 120 0 121 0 0 105 0 105 -120 0 -120 0 0 130 0 130 -130 0 -130 0 0 -130z"/>
<path d="M8312 3778 c-71 -8 -155 -43 -212 -88 -53 -42 -116 -139 -140 -217
-24 -78 -27 -231 -6 -309 33 -124 124 -231 244 -287 63 -30 74 -32 182 -32
103 0 121 3 171 26 31 15 72 43 92 63 l37 37 0 -74 c0 -124 -39 -198 -125
-238 -55 -25 -175 -25 -230 0 -38 17 -88 65 -97 92 -5 16 -248 -19 -248 -36 0
-29 56 -118 101 -160 114 -107 312 -150 502 -110 177 37 287 135 334 299 13
41 16 134 19 476 2 234 1 451 -2 483 l-6 57 -124 0 -124 0 0 -57 0 -57 -42 41
c-80 79 -184 108 -326 91z m243 -236 c84 -43 128 -125 128 -237 0 -90 -23
-144 -79 -194 -53 -46 -115 -66 -188 -58 -138 14 -217 107 -218 255 0 121 57
210 159 248 51 19 148 12 198 -14z"/>
<path d="M4390 3771 c-64 -20 -126 -71 -167 -137 -10 -16 -12 -7 -12 54 l-1
72 -125 0 -125 0 0 -470 0 -470 130 0 130 0 0 266 c0 304 4 329 66 390 49 49
116 69 205 61 l59 -5 0 124 0 124 -67 -1 c-38 0 -79 -4 -93 -8z"/>
<path d="M5570 3771 c-57 -19 -110 -53 -149 -97 l-41 -47 0 67 0 66 -125 0
-125 0 0 -470 0 -470 124 0 124 0 4 293 c3 284 4 293 27 340 34 71 85 101 175
105 92 4 138 -21 175 -93 26 -49 26 -50 29 -347 l4 -298 124 0 124 0 0 315 c0
194 -4 334 -11 367 -25 116 -88 201 -184 248 -41 19 -69 24 -150 27 -55 1
-111 -1 -125 -6z"/>
<path d="M7169 3757 c-37 -12 -85 -35 -107 -51 -51 -35 -108 -118 -120 -173
-11 -48 -14 -47 108 -58 36 -3 77 -8 92 -11 25 -5 29 -1 44 35 24 61 71 86
159 86 41 0 82 -6 100 -15 45 -23 75 -75 75 -130 l0 -47 -162 -6 c-288 -10
-411 -68 -455 -216 -25 -87 1 -206 60 -270 81 -87 252 -125 387 -85 59 17 133
64 153 95 20 32 27 22 27 -36 l0 -56 123 3 122 3 -3 335 c-3 372 -8 406 -65
482 -36 48 -89 85 -157 113 -34 14 -79 19 -180 22 -121 3 -142 1 -201 -20z
m351 -564 c-1 -123 -91 -203 -227 -203 -94 0 -143 41 -143 118 0 36 5 49 30
72 17 16 44 31 61 35 46 10 158 22 222 24 l57 1 0 -47z"/>
<path d="M9410 3761 c-135 -44 -223 -118 -283 -241 -53 -107 -66 -209 -43
-327 20 -104 52 -167 125 -245 144 -156 411 -195 620 -90 162 81 266 286 246
482 -23 218 -150 373 -350 426 -73 20 -247 17 -315 -5z m280 -224 c53 -26 105
-90 121 -150 6 -23 9 -78 7 -123 -7 -134 -68 -210 -190 -236 -111 -23 -218 26
-271 126 -18 34 -22 57 -22 136 0 88 2 99 31 150 67 119 198 158 324 97z"/>
<path d="M4690 3290 l0 -471 128 3 127 3 0 465 0 465 -127 3 -128 3 0 -471z"/>
</g>
</svg>
