<?xml version="1.0" encoding="UTF-8"?>
<svg version="1.1" xmlns="http://www.w3.org/2000/svg" viewBox="0 0 1254 1254">
<path d="M0 0 C413.82 0 827.64 0 1254 0 C1254 413.82 1254 827.64 1254 1254 C840.18 1254 426.36 1254 0 1254 C0 840.18 0 426.36 0 0 Z " fill="#FDFDFD" transform="translate(0,0)"/>
<path d="M0 0 C11.47954589 3.8278271 23.33826813 6.42157896 35.08959961 9.27099609 C36.10973145 9.51914062 37.12986328 9.76728516 38.1809082 10.02294922 C40.94121988 10.69285079 43.70262702 11.35797954 46.46459961 12.02099609 C47.7356958 12.3286792 47.7356958 12.3286792 49.0324707 12.64257812 C52.74663878 13.52977402 56.44482899 14.36089358 60.21069336 14.99755859 C69.37777611 16.60786096 74.30023255 19.34481892 79.96459961 26.70849609 C81.16377081 29.43994161 81.83915084 32.17002586 82.54516602 35.0612793 C85.17087778 45.71837222 88.31959893 56.1973361 91.85595703 66.58447266 C93.81260232 72.35710984 95.57420469 78.16932727 97.26757812 84.02392578 C98.63018079 88.72961392 100.05248517 93.41173981 101.52709961 98.08349609 C104.21201548 106.60371377 106.77242795 115.1599322 109.32788086 123.71972656 C110.55855668 127.84170167 111.79215994 131.9627966 113.02709961 136.08349609 C113.39327393 137.30564819 113.39327393 137.30564819 113.7668457 138.55249023 C115.41319906 144.03908833 117.07711497 149.52016174 118.74902344 154.99902344 C127.49833109 183.67139634 127.49833109 183.67139634 129.71459961 192.83349609 C130.66032099 196.73261552 131.80736195 200.38864128 133.28100586 204.11474609 C136.41649195 212.47604234 138.66305437 221.20012129 141.16552734 229.76977539 C142.56367396 234.53876694 144.02482939 239.28389729 145.52709961 244.02099609 C147.45720112 250.11465647 149.23298791 256.24319971 150.96459961 262.39599609 C154.07936525 273.43814567 157.53084615 284.36471872 161.08959961 295.27099609 C161.35901367 296.10405273 161.62842773 296.93710937 161.90600586 297.79541016 C162.16639648 298.59172852 162.42678711 299.38804687 162.69506836 300.20849609 C162.92476318 300.91361328 163.15445801 301.61873047 163.39111328 302.34521484 C165.59948402 308.43386511 168.9823776 311.26033132 174.49115479 314.21227908 C178.99067342 316.04557448 183.32398766 315.95979985 188.12705994 315.90591431 C189.20575193 315.91371426 190.28444391 315.92151421 191.39582354 315.92955053 C194.99323859 315.94941851 198.5895897 315.93372513 202.18701172 315.91796875 C204.77307246 315.92474716 207.35912838 315.93365153 209.94517517 315.94451904 C216.2299636 315.96670207 222.51445273 315.96197228 228.79925268 315.94745584 C233.9095798 315.93614303 239.01982331 315.93464149 244.13015938 315.94007492 C244.85874811 315.94084109 245.58733684 315.94160725 246.33800401 315.94239663 C247.81834092 315.94399534 249.2986778 315.94561641 250.77901465 315.94725959 C264.64651641 315.96150288 278.51385267 315.94514726 292.38132728 315.91825776 C304.2665081 315.89592492 316.15144469 315.89979686 328.03662109 315.92285156 C341.85447077 315.94964287 355.67217549 315.96012478 369.49004751 315.94479024 C370.96510635 315.94319758 372.4401652 315.94162573 373.91522408 315.94007492 C374.64088718 315.93930354 375.36655028 315.93853217 376.11420317 315.93773741 C381.21472525 315.93343003 386.31515499 315.94068624 391.41566277 315.95247269 C398.28834015 315.9680059 405.16054992 315.95685845 412.03318214 315.9280014 C414.55263378 315.92140105 417.07212429 315.92327015 419.59156036 315.93431473 C423.0366116 315.94802227 426.48019724 315.93078861 429.92515564 315.90591431 C430.9170985 315.91706792 431.90904136 315.92822152 432.93104309 315.93971312 C439.87148318 315.84282143 445.31491327 314.21068579 451.08959961 310.27099609 C456.29322349 304.57808967 458.04517646 296.95461403 460.15209961 289.70849609 C460.49861572 288.55115967 460.84513184 287.39382324 461.20214844 286.20141602 C463.33025697 279.0416825 465.30633465 271.85585468 467.16772461 264.62255859 C468.51029011 259.74153656 470.17764715 254.98242367 471.81225586 250.19287109 C473.18545722 246.0722275 474.33268823 241.90076045 475.46459961 237.70849609 C477.28483718 230.97803547 479.31256301 224.34004043 481.46459961 217.70849609 C484.34168029 208.82130546 486.91638835 199.8762718 489.39379883 190.87036133 C491.49095959 183.2927524 493.74802143 175.77641475 496.08959961 168.27099609 C498.76766492 159.68082941 501.31223272 151.06735206 503.71459961 142.39599609 C504.00061035 141.37094971 504.28662109 140.34590332 504.58129883 139.28979492 C506.2524727 133.30031052 506.2524727 133.30031052 507.89428711 127.30273438 C508.6516393 124.51655938 509.4308005 121.73732724 510.21459961 118.95849609 C510.43196777 118.13430176 510.64933594 117.31010742 510.87329102 116.4609375 C511.09162598 115.70087402 511.30996094 114.94081055 511.53491211 114.15771484 C511.71554199 113.49989014 511.89617188 112.84206543 512.08227539 112.16430664 C515.25021143 106.21003035 523.72882511 102.50504339 529.27709961 99.02099609 C530.26774414 98.37130859 531.25838867 97.72162109 532.27905273 97.05224609 C538.45777481 93.19510287 543.71123932 90.63796886 551.08959961 92.27099609 C554.19561271 93.99399927 556.47586663 96.04353013 558.08959961 99.27099609 C558.73091179 105.90122007 556.69089168 111.39638513 554.57788086 117.62646484 C553.83655612 119.87523833 553.09652063 122.12443716 552.35766602 124.37402344 C551.97854065 125.52062439 551.59941528 126.66722534 551.20880127 127.84857178 C549.47397071 133.15353737 547.83104923 138.48564851 546.19506836 143.82177734 C545.87630234 144.85834473 545.55753632 145.89491211 545.22911072 146.96289062 C544.24366342 150.16931791 543.26025031 153.37636396 542.27709961 156.58349609 C541.5794998 158.85614211 540.88182621 161.12876549 540.18408203 163.40136719 C538.79848409 167.91541042 537.41389234 172.42976056 536.0300293 176.94433594 C534.54382857 181.79192831 533.05416103 186.63844053 531.56211853 191.48423767 C530.56767737 194.71504393 529.57525618 197.946468 528.58340454 201.17807007 C528.14080212 202.61892186 527.6974641 204.05954797 527.25326538 205.49990845 C524.89918015 213.13636486 522.65275745 220.78982451 520.54272461 228.49755859 C518.59796451 235.5899978 516.42570854 242.56723623 514.02709961 249.52099609 C511.5505887 256.8278214 509.18952588 264.11393994 507.14038086 271.55224609 C505.45966681 277.50034934 503.62078174 283.40027056 501.79638672 289.30566406 C500.29849845 294.18386258 498.8558241 299.06401626 497.55053711 303.99755859 C492.73448465 322.13989266 484.94023443 337.6263912 468.46459961 347.70849609 C462.37813781 350.95776149 456.18615029 353.01784533 449.51098633 354.72583008 C447.69069548 355.19223988 445.88786799 355.72581015 444.08959961 356.27099609 C443.75959961 356.93099609 443.42959961 357.59099609 443.08959961 358.27099609 C443.95842773 358.35349609 444.82725586 358.43599609 445.72241211 358.52099609 C454.94963717 360.57624808 463.70027383 369.83097559 469.08959961 377.27099609 C476.29974447 389.27561068 477.98587002 401.80907652 474.96459961 415.52099609 C470.98291728 429.2091759 462.90947105 439.29148534 450.46459961 446.27099609 C438.9028383 451.97802113 426.21657637 453.52257804 413.71459961 449.64599609 C401.72067772 445.00791233 390.65780775 437.24824918 385.08959961 425.27099609 C384.75959961 422.63099609 384.42959961 419.99099609 384.08959961 417.27099609 C335.90959961 417.60099609 287.72959961 417.93099609 238.08959961 418.27099609 C236.43959961 422.23099609 234.78959961 426.19099609 233.08959961 430.27099609 C225.36864866 441.45664267 214.47240717 448.25132668 201.23803711 450.82568359 C187.17213669 452.81515338 175.43898618 450.29212068 163.69116211 442.30224609 C154.26536629 434.94276588 147.60839946 425.08002218 145.08959961 413.27099609 C143.81582904 398.04724167 145.36968371 385.51089018 155.08959961 373.27099609 C161.15354855 366.16153872 168.61004915 359.73586446 178.08959961 358.27099609 C177.75959961 357.61099609 177.42959961 356.95099609 177.08959961 356.27099609 C174.44280099 355.58766252 171.82769229 355.00169338 169.15209961 354.45849609 C152.73172494 350.83324075 138.75988667 341.32216697 129.07788086 327.37255859 C124.81927152 320.03777375 122.54702443 312.59510343 120.46069336 304.45849609 C118.9077786 298.43962891 117.06123734 292.51762061 115.21459961 286.58349609 C114.52056424 284.3426184 113.82655385 282.10173298 113.13256836 279.86083984 C112.79016113 278.75724121 112.44775391 277.65364258 112.0949707 276.51660156 C110.56062122 271.56331307 109.03745937 266.60665165 107.52709961 261.64599609 C107.27703156 260.82477768 107.0269635 260.00355927 106.76931763 259.15745544 C104.72668192 252.42690691 102.7477311 245.67977658 100.79272461 238.92333984 C97.72475719 228.36621588 94.53719394 217.8500419 91.29321289 207.34588623 C83.72421955 182.82079252 76.37540812 158.23142298 69.05566406 133.63110352 C68.24417565 130.90426222 67.43255259 128.17746103 66.62084961 125.45068359 C66.424114 124.78965385 66.22737839 124.12862411 66.02468109 123.44756317 C63.21131018 113.99748511 60.36210156 104.55886746 57.48228455 95.12882996 C55.04342557 87.13773742 52.64882674 79.13417828 50.2890625 71.11938477 C49.62955423 68.88201117 48.96598198 66.64586312 48.30249023 64.40966797 C47.87841766 62.97158899 47.45457926 61.53344093 47.03100586 60.09521484 C46.83422745 59.43398117 46.63744904 58.7727475 46.43470764 58.09147644 C45.08959961 53.49969793 45.08959961 53.49969793 45.08959961 51.27099609 C43.90108398 51.18205078 42.71256836 51.09310547 41.48803711 51.00146484 C34.73227426 50.24687379 28.26159165 48.34985119 21.71459961 46.58349609 C13.63236729 44.42446552 5.56363824 42.31914214 -2.62915039 40.61865234 C-3.83651855 40.36752686 -5.04388672 40.11640137 -6.2878418 39.85766602 C-8.55236655 39.39688913 -10.82020219 38.95198031 -13.09155273 38.52612305 C-20.55725191 37.00135582 -27.51635176 34.59601594 -32.38256836 28.39501953 C-35.80173305 22.91026901 -35.76541625 16.51173041 -34.91040039 10.27099609 C-32.58664057 5.25167488 -28.49584754 1.35812828 -23.91040039 -1.72900391 C-15.77000919 -4.45901315 -7.88556914 -2.66397769 0 0 Z " fill="#1B1B1B" transform="translate(317.910400390625,351.72900390625)"/>
<path d="M0 0 C5.28434813 2.36969987 10.20745948 5.38363623 15.1640625 8.36352539 C21.34814989 12.07118861 27.64690858 15.52882309 34 18.9375 C41.90469097 23.18548479 49.7618799 27.50120943 57.5625 31.9375 C75.99611561 42.41234336 94.58740659 52.60249382 113.24414062 62.67382812 C121.45798434 67.11359496 129.63898262 71.61157603 137.8125 76.125 C138.73542847 76.6346228 138.73542847 76.6346228 139.67700195 77.15454102 C142.55671892 78.74509811 145.43536631 80.33748126 148.31201172 81.93359375 C150.24035578 82.99844053 152.17364094 84.05443503 154.11376953 85.09765625 C155.31235596 85.74541016 155.31235596 85.74541016 156.53515625 86.40625 C157.21328369 86.76783203 157.89141113 87.12941406 158.59008789 87.50195312 C160.58002594 88.75400005 161.89919974 89.78225932 163.375 91.625 C163.76940918 94.07136536 163.76940918 94.07136536 163.79492188 97.01098633 C163.81083374 98.11255569 163.82674561 99.21412506 163.84313965 100.34907532 C163.84344177 102.1350135 163.84344177 102.1350135 163.84375 103.95703125 C163.85136353 105.18153488 163.85897705 106.40603851 163.86682129 107.66764832 C163.87763667 110.26091471 163.8804696 112.85422471 163.87597656 115.44750977 C163.87500631 119.41171283 163.91657351 123.3739682 163.9609375 127.33789062 C163.96614587 129.85676679 163.96883267 132.3756497 163.96875 134.89453125 C163.98514526 136.07908401 164.00154053 137.26363678 164.01843262 138.48408508 C163.94150182 147.66928037 163.94150182 147.66928037 161.17114258 151.2097168 C158.53468472 153.48706575 156.08138755 155.30478873 153.04296875 157 C152.00978516 157.58523438 150.97660156 158.17046875 149.91210938 158.7734375 C148.80673828 159.38445312 147.70136719 159.99546875 146.5625 160.625 C145.39443096 161.28252122 144.22712497 161.94139965 143.06054688 162.6015625 C140.66562759 163.95610533 138.26804079 165.30573533 135.86865234 166.65234375 C130.66717707 169.57977129 125.52274227 172.60441684 120.375 175.625 C110.8070007 181.21996821 101.2097634 186.7630842 91.60473633 192.29418945 C85.57282234 195.77069338 79.55540284 199.26920342 73.5625 202.8125 C66.68333148 206.877995 59.75437768 210.85196403 52.81225586 214.80883789 C45.57212236 218.9367946 38.34506074 223.08703497 31.125 227.25 C30.02591309 227.88341309 28.92682617 228.51682617 27.79443359 229.16943359 C22.8897364 232.00056443 17.99212488 234.84173551 13.12109375 237.73046875 C12.34088867 238.19308105 11.56068359 238.65569336 10.75683594 239.13232422 C9.34788488 239.97035853 7.94081123 240.81156189 6.53613281 241.65673828 C1.23914205 244.8119505 -3.03625392 246.9240163 -9.25 247.125 C-10.19101562 247.1765625 -11.13203125 247.228125 -12.1015625 247.28125 C-17.56224282 246.26418316 -21.86467117 243.40179349 -26.625 240.625 C-28.60472131 239.52235383 -30.58652216 238.42343361 -32.5703125 237.328125 C-43.89603164 231.00831379 -55.16178578 224.6102484 -66.31494141 217.99121094 C-79.37738379 210.26584341 -92.51374793 202.6671694 -105.70141602 195.15795898 C-113.27020203 190.8421799 -120.79561021 186.45399036 -128.31665039 182.05566406 C-135.88244149 177.63383767 -143.46876117 173.24862657 -151.0625 168.875 C-154.2631148 167.02778803 -157.46338406 165.17997877 -160.66357422 163.33203125 C-163.43041928 161.73716063 -166.20126078 160.14944449 -168.97265625 158.5625 C-170.52366163 157.66705478 -172.07445976 156.77125042 -173.625 155.875 C-174.66611938 155.28380371 -174.66611938 155.28380371 -175.72827148 154.68066406 C-178.84615319 152.86828747 -180.58914977 151.67877534 -182.625 148.625 C-182.89915466 146.13394165 -182.89915466 146.13394165 -182.93139648 143.13134766 C-182.95537758 141.44412094 -182.95537758 141.44412094 -182.97984314 139.72280884 C-182.98520584 138.50717255 -182.99056854 137.29153625 -182.99609375 136.0390625 C-183.00512222 134.78999115 -183.0141507 133.5409198 -183.02345276 132.2539978 C-183.03797346 129.60928942 -183.04764157 126.96501354 -183.05053711 124.3203125 C-183.05591874 120.93831453 -183.0935887 117.55751231 -183.13928127 114.17585182 C-183.1762541 110.94282655 -183.1775682 107.70977079 -183.18359375 104.4765625 C-183.20312607 103.26497467 -183.22265839 102.05338684 -183.24278259 100.80508423 C-183.19784839 92.44240861 -183.19784839 92.44240861 -180.45019531 88.52172852 C-177.63714147 86.63315132 -174.8928684 84.94513412 -171.86328125 83.42578125 C-170.75299561 82.86133301 -169.64270996 82.29688477 -168.4987793 81.71533203 C-167.32355713 81.12864746 -166.14833496 80.54196289 -164.9375 79.9375 C-162.48978412 78.6961084 -160.04575991 77.44752048 -157.6015625 76.19921875 C-156.99847763 75.89230103 -156.39539276 75.5853833 -155.77403259 75.26916504 C-150.72933229 72.69635626 -145.75289809 70.01699633 -140.8125 67.25 C-140.09989014 66.85111572 -139.38728027 66.45223145 -138.65307617 66.04125977 C-135.37112888 64.19466043 -132.10176843 62.32702838 -128.83984375 60.4453125 C-123.6835602 57.47085331 -118.54626294 54.53592174 -113.1875 51.9375 C-107.36503854 49.08380347 -101.75555551 45.90121336 -96.125 42.6875 C-87.36573205 37.69035027 -78.529083 32.8579767 -69.625 28.125 C-60.82889561 23.44818479 -52.09517967 18.6794609 -43.4375 13.75 C-41.57433978 12.69640053 -39.71106221 11.64300854 -37.84765625 10.58984375 C-35.2794054 9.13715771 -32.7163816 7.67828929 -30.16748047 6.19189453 C-19.9248107 0.21930071 -11.8771055 -4.07840306 0 0 Z " fill="#FD4E03" transform="translate(639.625,252.375)"/>
<path d="M0 0 C4.19445853 0.69810683 7.28330305 2.76773539 10.87890625 4.96875 C12.58509452 5.98579053 14.29218233 7.00132296 16 8.015625 C16.92925293 8.57056641 17.85850586 9.12550781 18.81591797 9.69726562 C23.72634111 12.59637305 28.69407732 15.39395526 33.65505981 18.20535278 C44.36825275 24.28296443 54.9735743 30.5176926 65.51538086 36.88916016 C74.0452566 42.03455114 82.65855551 47.02482921 91.29736328 51.98461914 C98.16639457 55.93108663 105.0045816 59.92440387 111.81640625 63.96875 C122.12811707 70.08750586 132.50094452 76.09657678 142.90625 82.0546875 C146.38937968 84.05306916 149.84487809 86.07937337 153.2578125 88.1953125 C160.89408338 92.95620681 160.89408338 92.95620681 169.65625 94.04296875 C177.25134394 92.02401973 183.68143077 87.65815226 190.31640625 83.59375 C198.64094386 78.54351018 207.00704026 73.59997694 215.50390625 68.84375 C223.80738774 64.19235763 232.02455331 59.41788763 240.20263672 54.54980469 C247.62794703 50.14213418 255.12109107 45.85862017 262.62890625 41.59375 C272.66497872 35.89066375 282.59996684 30.04267852 292.47875977 24.06982422 C303.31238866 17.53338151 314.27713761 11.23186093 325.25878906 4.94824219 C327.0228396 3.92780058 328.76234705 2.86413877 330.47949219 1.76660156 C332.81640625 0.46875 332.81640625 0.46875 335.50390625 0.65625 C337.81640625 1.46875 337.81640625 1.46875 339.81640625 3.46875 C340.09056091 5.3772583 340.09056091 5.3772583 340.12280273 7.73144531 C340.13879013 8.61286194 340.15477753 9.49427856 340.17124939 10.40240479 C340.17929344 11.83516754 340.17929344 11.83516754 340.1875 13.296875 C340.19652847 14.27863708 340.20555695 15.26039917 340.21485901 16.27191162 C340.22938725 18.35328105 340.23825461 20.43469642 340.24194336 22.51611328 C340.25380828 25.69252317 340.30294241 28.86697102 340.35351562 32.04296875 C340.36298326 34.06509468 340.37021666 36.08723256 340.375 38.109375 C340.39453232 39.05645325 340.41406464 40.00353149 340.43418884 40.97930908 C340.40493142 45.28303412 340.31671137 48.45777073 337.59350586 51.92163086 C335.0630827 54.24250161 332.83147986 55.95350583 329.82421875 57.58203125 C328.88022217 58.10265137 327.93622559 58.62327148 326.96362305 59.15966797 C325.9662915 59.69479004 324.96895996 60.22991211 323.94140625 60.78125 C321.84552493 61.93469241 319.750471 63.08963954 317.65625 64.24609375 C316.6441748 64.80151855 315.63209961 65.35694336 314.58935547 65.92919922 C311.1755779 67.82454007 307.83844245 69.81218864 304.50390625 71.84375 C297.85592196 75.88655841 291.12266164 79.77566905 284.37890625 83.65625 C263.83981152 95.47914946 243.4032746 107.46791598 223.02490234 119.56542969 C220.01540544 121.35070117 217.0043646 123.13331756 213.9921875 124.9140625 C213.07663086 125.45579102 212.16107422 125.99751953 211.21777344 126.55566406 C209.42291496 127.61423658 207.62542027 128.6683532 205.82519531 129.71777344 C201.1842235 132.43082595 196.62504672 135.22228439 192.125 138.1640625 C174.13885532 149.77135528 174.13885532 149.77135528 164.24609375 148.87109375 C154.42042348 146.32121924 145.5574652 139.86357677 137.07763672 134.51269531 C132.19806764 131.4544716 127.22494093 128.5623528 122.25390625 125.65625 C120.45621523 124.5925237 118.65931879 123.52745323 116.86328125 122.4609375 C112.24963066 119.72387792 107.62877447 116.99930385 103.00390625 114.28125 C102.31256592 113.87487305 101.62122559 113.46849609 100.90893555 113.04980469 C99.54202344 112.2463661 98.17508053 111.44297991 96.80810547 110.63964844 C94.8742135 109.50273426 92.94090066 108.36484275 91.0078125 107.2265625 C72.90104845 96.56576182 54.77291103 85.94103926 36.62890625 75.34375 C35.67846436 74.78727783 34.72802246 74.23080566 33.7487793 73.6574707 C29.02062336 70.89516303 24.28055095 68.15729088 19.51005554 65.46887207 C17.10857517 64.11503734 14.7110963 62.75418987 12.31356812 61.39337158 C10.61017416 60.43097825 8.90049353 59.47973891 7.19067383 58.52880859 C6.15450928 57.9405127 5.11834473 57.3522168 4.05078125 56.74609375 C3.13522461 56.23296631 2.21966797 55.71983887 1.27636719 55.19116211 C-1.69376042 53.11154219 -3.34861381 51.62889099 -5.18359375 48.46875 C-5.74880348 45.05509253 -5.7205648 41.69570582 -5.6796875 38.2421875 C-5.68114273 37.25755524 -5.68259796 36.27292297 -5.68409729 35.25845337 C-5.6824407 33.18236321 -5.67090635 31.10626046 -5.65014648 29.03027344 C-5.62113049 25.84777935 -5.62955495 22.66694514 -5.64257812 19.484375 C-5.63634239 17.46613772 -5.62795274 15.4479057 -5.6171875 13.4296875 C-5.62012314 12.47653656 -5.62305878 11.52338562 -5.62608337 10.54135132 C-5.6133992 9.65678253 -5.60071503 8.77221375 -5.58764648 7.86083984 C-5.5822435 7.08316254 -5.57684052 6.30548523 -5.5712738 5.50424194 C-4.93622135 2.16993535 -3.26566581 0.70103738 0 0 Z " fill="#FD6E18" transform="translate(462.18359375,428.53125)"/>
<path d="M0 0 C0.99 0.495 0.99 0.495 2 1 C2 1.66 2 2.32 2 3 C3.09985229 3.41862305 3.09985229 3.41862305 4.22192383 3.84570312 C6.7712069 4.90493595 9.064392 6.08563888 11.44921875 7.46875 C12.70702148 8.19384766 12.70702148 8.19384766 13.99023438 8.93359375 C14.88033203 9.45050781 15.77042969 9.96742188 16.6875 10.5 C18.58672356 11.59464579 20.48647171 12.68838188 22.38671875 13.78125 C23.33466309 14.32652344 24.28260742 14.87179687 25.25927734 15.43359375 C29.15287352 17.65890223 33.07356516 19.83332429 37 22 C50.67980706 29.56560248 64.2388284 37.34167261 77.70092773 45.2878418 C90.69989197 52.95968678 103.78921767 60.46616121 116.94189453 67.87109375 C123.35833811 71.48947723 129.74494885 75.15621802 136.11694336 78.85229492 C140.45536619 81.3660567 144.80306656 83.86347489 149.15234375 86.35839844 C151.65237871 87.79960515 154.13956082 89.26042016 156.625 90.7265625 C163.35683233 94.62247663 169.10174895 97.76407638 177 96 C184.07239232 94.06365219 190.26458697 90.25562165 196.546875 86.57421875 C201.07119609 83.93503145 205.66051611 81.41829645 210.24926758 78.89331055 C222.00647459 72.41904083 233.60831442 65.73920005 245.13110352 58.85498047 C252.40930446 54.51344836 259.73564939 50.27440457 267.125 46.125 C283.98111442 36.69798247 283.98111442 36.69798247 300.375 26.5 C306.06814378 22.81209829 312.06611874 19.75420722 318.07910156 16.62988281 C326.48494841 12.25428244 334.46775955 7.45970786 342.28515625 2.1015625 C344 1 344 1 345 1 C345.15217501 8.31377493 345.25722622 15.62714153 345.32958984 22.94213867 C345.35975663 25.43024959 345.40069627 27.91825423 345.45263672 30.40600586 C345.52545082 33.98317685 345.55945883 37.55894176 345.5859375 41.13671875 C345.61690521 42.24834885 345.64787292 43.35997894 345.67977905 44.5052948 C345.68303994 51.99363157 345.68303994 51.99363157 343.83581543 54.715271 C342.33935547 56.01147461 342.33935547 56.01147461 339 58 C338.03288086 58.62374512 337.06576172 59.24749023 336.06933594 59.89013672 C335.05129883 60.48068848 334.03326172 61.07124023 332.984375 61.6796875 C332.42026917 62.00893219 331.85616333 62.33817688 331.27496338 62.67739868 C329.4363869 63.74866388 327.59329221 64.81187313 325.75 65.875 C324.4476469 66.63169735 323.14556779 67.38886646 321.84375 68.14648438 C317.90036231 70.4388557 313.95086097 72.72053941 310 75 C308.86755859 75.65387695 307.73511719 76.30775391 306.56835938 76.98144531 C302.32179502 79.43237079 298.07442614 81.88187662 293.82446289 84.3269043 C285.5862355 89.07016409 277.3829329 93.87088475 269.1875 98.6875 C260.05385444 104.05515352 250.89590785 109.3751609 241.68505859 114.60961914 C234.00585753 118.97902618 226.38456264 123.44521653 218.76220703 127.9128418 C211.84589354 131.95477732 204.86926055 135.86904792 197.8425293 139.71508789 C193.29352012 142.22347947 188.93512954 144.88456641 184.7265625 147.94140625 C181.22271138 150.08969506 177.47864914 150.2599262 173.4375 150.4375 C172.48746094 150.49808594 171.53742188 150.55867187 170.55859375 150.62109375 C165.06160969 149.66168599 160.77713304 146.79217688 156 144 C154.02038704 142.89715931 152.03858411 141.79824111 150.0546875 140.703125 C138.72896836 134.38331379 127.46321422 127.9852484 116.31005859 121.36621094 C103.24761621 113.64084341 90.11125207 106.0421694 76.92358398 98.53295898 C69.35479797 94.2171799 61.82938979 89.82899036 54.30834961 85.43066406 C46.74255851 81.00883767 39.15623883 76.62362657 31.5625 72.25 C28.3618852 70.40278803 25.16161594 68.55497877 21.96142578 66.70703125 C19.19458072 65.11216063 16.42373922 63.52444449 13.65234375 61.9375 C12.10133837 61.04205478 10.55054024 60.14625042 9 59.25 C8.30592041 58.85586914 7.61184082 58.46173828 6.89672852 58.05566406 C3.77884681 56.24328747 2.03585023 55.05377534 0 52 C-0.24050903 49.66511536 -0.24050903 49.66511536 -0.22705078 46.88598633 C-0.22689972 45.84513382 -0.22674866 44.80428131 -0.22659302 43.73188782 C-0.21627045 42.60993515 -0.20594788 41.48798248 -0.1953125 40.33203125 C-0.1924826 39.18208176 -0.18965271 38.03213226 -0.18673706 36.84733582 C-0.17552833 33.16895204 -0.15042224 29.49081038 -0.125 25.8125 C-0.11497111 23.32096705 -0.1058451 20.8294303 -0.09765625 18.33789062 C-0.07558673 12.22517759 -0.04210224 6.11260609 0 0 Z " fill="#FD4603" transform="translate(457,349)"/>
<path d="M0 0 C0.52932129 0.36496582 1.05864258 0.72993164 1.60400391 1.10595703 C7.36660875 5.02072248 13.2833301 8.50149773 19.375 11.875 C28.09584726 16.75299082 36.72864047 21.75994341 45.3125 26.875 C55.4718081 32.92685756 65.68131387 38.88272641 75.93286133 44.77685547 C81.80654679 48.15488561 87.66740133 51.55152925 93.5 55 C103.79261854 61.08124867 114.16161414 67.03042148 124.52148438 72.99609375 C128.08319577 75.04746236 131.64332403 77.10156839 135.203125 79.15625 C135.79154678 79.49586258 136.37996857 79.83547516 136.98622131 80.18537903 C139.81109084 81.81580862 142.63590443 83.44633508 145.46069336 85.0769043 C147.44788957 86.22357554 149.43662845 87.36757948 151.42724609 88.50830078 C152.98883953 89.41372267 154.54155975 90.33502086 156.07666016 91.28466797 C162.08530161 94.96473507 167.1369243 95.19292185 174 94 C178.51383292 92.23256718 182.57782914 89.89569173 186.70605469 87.38671875 C189.26704758 85.83856638 191.85324495 84.33927704 194.4453125 82.84375 C199.59531467 79.86735859 204.72712093 76.86102422 209.85498047 73.84667969 C214.89664479 70.88633588 219.94868835 67.9438409 225 65 C227.00655764 63.82950804 229.01306803 62.65893507 231.01953125 61.48828125 C234.95393232 59.19316064 238.88885909 56.89894529 242.82421875 54.60546875 C264.53063671 41.95352066 286.21949333 29.27273412 307.81958008 16.43994141 C309.86328144 15.22621902 311.90792405 14.01407983 313.95361328 12.80371094 C316.09538842 11.53560429 318.23412119 10.26235202 320.37060547 8.98535156 C321.4535791 8.34307617 322.53655273 7.70080078 323.65234375 7.0390625 C324.63066162 6.45592285 325.60897949 5.8727832 326.61694336 5.27197266 C329 4 329 4 331 4 C330.61096654 12.09189599 328.69983526 19.69382792 326.65185547 27.49365234 C325.3585792 32.46622693 324.12131735 37.45299357 322.875 42.4375 C322.49468628 43.94691162 322.49468628 43.94691162 322.10668945 45.48681641 C321.86265381 46.45925293 321.61861816 47.43168945 321.3671875 48.43359375 C321.12967773 49.37444824 320.89216797 50.31530273 320.64746094 51.28466797 C319.88426847 54.48535674 319.27318071 57.70492283 318.72705078 60.94946289 C316.89927645 66.10442483 313.24665342 68.75675985 308.58203125 71.2421875 C307.5058252 71.82532715 306.42961914 72.4084668 305.32080078 73.00927734 C304.16306152 73.62496582 303.00532227 74.2406543 301.8125 74.875 C299.34380248 76.21172317 296.88047762 77.55816617 294.41796875 78.90625 C293.79297485 79.24755951 293.16798096 79.58886902 292.52404785 79.94052124 C286.46399379 83.26407784 280.53426956 86.7906968 274.625 90.375 C265.62628207 95.82655305 256.58568291 101.19535091 247.5 106.5 C238.46575786 111.77758768 229.46194622 117.10010191 220.5 122.5 C211.09693708 128.16356478 201.6552277 133.7579738 192.1875 139.3125 C191.55263672 139.68552246 190.91777344 140.05854492 190.26367188 140.44287109 C188.46180489 141.50116263 186.65884749 142.55756832 184.85546875 143.61328125 C183.82059326 144.21954346 182.78571777 144.82580566 181.71948242 145.45043945 C174.66073044 149.47251494 168.04594692 150.67334685 160 149 C154.79044948 147.01918231 150.21752202 143.72842259 145.59130859 140.67333984 C140.51245479 137.39366546 135.27223499 134.37811627 130.0625 131.3125 C128.89726193 130.62229932 127.73230599 129.93162211 126.56762695 129.24047852 C115.51225724 122.68292919 104.37968344 116.26136115 93.23388672 109.85888672 C87.81863382 106.74611792 82.40962029 103.62254379 77 100.5 C70.47772441 96.73626188 63.95486229 92.97355373 57.4296875 89.21484375 C53.10069029 86.72119214 48.77408779 84.22345999 44.44921875 81.72265625 C40.04288093 79.1750847 35.6275667 76.64394062 31.20703125 74.12109375 C29.03373303 72.87260668 26.86055154 71.62391638 24.6875 70.375 C23.68509277 69.8070874 22.68268555 69.2391748 21.64990234 68.65405273 C10.04094743 61.95488133 10.04094743 61.95488133 8.25708008 56.89111328 C7.57838532 54.23172714 7.0544549 51.57513814 6.5625 48.875 C6.15526547 46.81999088 5.74633638 44.76531702 5.3359375 42.7109375 C5.12420898 41.62651367 4.91248047 40.54208984 4.69433594 39.42480469 C3.96846331 35.84444562 3.17120944 32.28657817 2.3515625 28.7265625 C1.93668579 26.92082764 1.93668579 26.92082764 1.51342773 25.07861328 C0.9725203 22.73494756 0.42790045 20.39213482 -0.12084961 18.05029297 C-2.55111242 7.34946459 -2.55111242 7.34946459 -2 2 C-1.34 1.34 -0.68 0.68 0 0 Z " fill="#FDA76B" transform="translate(462,508)"/>
<path d="M0 0 C7.05637918 5.13619587 7.05637918 5.13619587 8.33984375 7.703125 C8.66984375 4.403125 8.99984375 1.103125 9.33984375 -2.296875 C17.91984375 -2.296875 26.49984375 -2.296875 35.33984375 -2.296875 C35.45328164 9.83050793 35.54481059 21.9575324 35.59890461 34.0853281 C35.62488085 39.71813906 35.66005802 45.3505649 35.71704102 50.9831543 C35.7717904 56.42969936 35.80135406 61.87587647 35.81422997 67.3226757 C35.82339336 69.38969646 35.84128503 71.4566995 35.86849403 73.52356148 C36.09205753 91.22711912 34.16428711 105.1995725 22.0390625 119.03515625 C11.36501141 129.51290295 -3.16590154 131.10532809 -17.33666992 131.07104492 C-25.08238887 130.93408467 -31.5182054 129.86925147 -38.66015625 126.703125 C-39.48515625 126.34089844 -40.31015625 125.97867188 -41.16015625 125.60546875 C-50.54452378 120.92913695 -57.02983235 113.52943439 -60.66015625 103.703125 C-60.66015625 102.713125 -60.66015625 101.723125 -60.66015625 100.703125 C-57.61935204 100.19732786 -54.57768979 99.69831741 -51.53515625 99.203125 C-50.67921875 99.06003906 -49.82328125 98.91695312 -48.94140625 98.76953125 C-39.71320365 97.2788216 -39.71320365 97.2788216 -35.66015625 97.703125 C-34.28480286 99.67446486 -32.95804581 101.67994422 -31.66015625 103.703125 C-27.54207301 108.17980537 -22.9179841 109.02473399 -17.07128906 109.29663086 C-7.4447259 109.42991692 -7.4447259 109.42991692 0.93359375 105.125 C5.87735508 100.12630799 8.17423839 95.98211105 8.53515625 88.8359375 C8.52205744 87.49985863 8.49849559 86.16384423 8.46484375 84.828125 C8.45582031 84.13976562 8.44679688 83.45140625 8.4375 82.7421875 C8.41416888 81.06234662 8.37830701 79.38268754 8.33984375 77.703125 C7.79199219 78.46109375 7.24414062 79.2190625 6.6796875 80 C4.23490308 82.82435863 2.18646967 84.22224033 -1.09765625 85.953125 C-2.02449219 86.45328125 -2.95132813 86.9534375 -3.90625 87.46875 C-12.42395125 91.28661326 -25.76377626 91.29824118 -34.66015625 88.578125 C-36.65625 87.73828125 -36.65625 87.73828125 -38.66015625 86.703125 C-39.88412109 86.08244141 -39.88412109 86.08244141 -41.1328125 85.44921875 C-52.97752016 78.89264603 -59.24679372 70.18338873 -63.80078125 57.53515625 C-66.43520506 45.78802099 -66.68232716 30.36183457 -60.66015625 19.703125 C-60.15097656 18.7646875 -59.64179687 17.82625 -59.1171875 16.859375 C-53.23713098 6.84847786 -45.15789026 -0.51769423 -33.81542969 -3.83666992 C-22.71499569 -6.20689173 -9.82486117 -5.85059402 0 0 Z " fill="#0B0B0B" transform="translate(858.66015625,880.296875)"/>
<path d="M0 0 C16.335 -0.185625 16.335 -0.185625 33 -0.375 C36.40441406 -0.42962402 39.80882812 -0.48424805 43.31640625 -0.54052734 C47.56054688 -0.56762695 47.56054688 -0.56762695 49.56420898 -0.57266235 C50.92695978 -0.58171545 52.28967093 -0.6024728 53.65209961 -0.63345337 C67.29774888 -0.92749983 80.56624801 1.94111256 91.17578125 11.15625 C100.57114638 20.6522079 104.24384842 30.779208 104.17626953 43.93652344 C104.01464293 54.92215907 100.38571546 65.59301303 92.875 73.875 C79.41008679 86.0082185 62.28170169 86.43564109 45.25 86.1875 C39.2275 86.125625 33.205 86.06375 27 86 C27 100.52 27 115.04 27 130 C18.09 130 9.18 130 0 130 C0 87.1 0 44.2 0 0 Z " fill="#090908" transform="translate(280,842)"/>
<path d="M0 0 C2.3125 0.8125 2.3125 0.8125 4.3125 2.8125 C4.58665466 4.7210083 4.58665466 4.7210083 4.61889648 7.07519531 C4.63488388 7.95661194 4.65087128 8.83802856 4.66734314 9.74615479 C4.67270584 10.70132996 4.67806854 11.65650513 4.68359375 12.640625 C4.69262222 13.62238708 4.7016507 14.60414917 4.71095276 15.61566162 C4.725481 17.69703105 4.73434836 19.77844642 4.73803711 21.85986328 C4.74990203 25.03627317 4.79903616 28.21072102 4.84960938 31.38671875 C4.85907701 33.40884468 4.86631041 35.43098256 4.87109375 37.453125 C4.89062607 38.40020325 4.91015839 39.34728149 4.93028259 40.32305908 C4.90102517 44.62678412 4.81280512 47.80152073 2.08959961 51.26538086 C-0.44082355 53.58625161 -2.67242639 55.29725583 -5.6796875 56.92578125 C-7.09568237 57.70671143 -7.09568237 57.70671143 -8.5402832 58.50341797 C-9.53761475 59.03854004 -10.53494629 59.57366211 -11.5625 60.125 C-13.65838132 61.27844241 -15.75343525 62.43338954 -17.84765625 63.58984375 C-18.85973145 64.14526855 -19.87180664 64.70069336 -20.91455078 65.27294922 C-24.32832835 67.16829007 -27.6654638 69.15593864 -31 71.1875 C-37.64798429 75.23030841 -44.38124461 79.11941905 -51.125 83 C-71.66409473 94.82289946 -92.10063165 106.81166598 -112.47900391 118.90917969 C-115.48850081 120.69445117 -118.49954165 122.47706756 -121.51171875 124.2578125 C-122.42800049 124.79954102 -123.34428223 125.34126953 -124.28833008 125.89941406 C-126.07737505 126.95541288 -127.86755461 128.00949218 -129.65893555 129.06152344 C-134.36784174 131.83029249 -139.04600213 134.63991581 -143.6953125 137.5078125 C-145.18357544 138.41527222 -145.18357544 138.41527222 -146.7019043 139.34106445 C-148.59911399 140.49891221 -150.48912077 141.66867758 -152.37036133 142.85229492 C-157.42865151 145.92001678 -160.74259522 147.54853583 -166.6875 146.8125 C-167.70877326 140.93576146 -167.81757966 135.24173204 -167.78515625 129.28515625 C-167.7837413 128.29623886 -167.78232635 127.30732147 -167.78086853 126.28843689 C-167.77530088 123.15059296 -167.7627544 120.01282213 -167.75 116.875 C-167.74498082 114.73893333 -167.74041864 112.60286553 -167.73632812 110.46679688 C-167.72534206 105.24867325 -167.70863636 100.03059185 -167.6875 94.8125 C-167.11100204 94.56530716 -166.53450409 94.31811432 -165.9405365 94.06343079 C-161.25086163 92.02143829 -156.78264164 89.8480737 -152.37890625 87.23046875 C-151.81859207 86.8995372 -151.25827789 86.56860565 -150.6809845 86.22764587 C-149.48641754 85.52147744 -148.29311305 84.8131695 -147.10101318 84.10284424 C-144.55479007 82.58578995 -142.00221961 81.07956582 -139.44989014 79.57281494 C-138.13420572 78.79609345 -136.81881776 78.01886958 -135.50372314 77.2411499 C-129.04984825 73.42697773 -122.56048549 69.67606035 -116.0625 65.9375 C-114.98492432 65.31705811 -113.90734863 64.69661621 -112.79711914 64.05737305 C-110.71739637 62.85999561 -108.63756675 61.66280374 -106.55761719 60.46582031 C-101.67768152 57.65475155 -96.8053025 54.83066666 -91.93359375 52.00537109 C-87.50060045 49.43607892 -83.06157606 46.87766213 -78.6171875 44.328125 C-66.71274759 37.49276505 -54.878782 30.56027582 -43.12744141 23.46484375 C-32.25645961 16.91709754 -21.25962354 10.59441026 -10.24511719 4.29199219 C-8.48106665 3.27155058 -6.7415592 2.20788877 -5.02441406 1.11035156 C-2.6875 -0.1875 -2.6875 -0.1875 0 0 Z " fill="#FD5C06" transform="translate(797.6875,429.1875)"/>
<path d="M0 0 C0.15217501 7.31377493 0.25722622 14.62714153 0.32958984 21.94213867 C0.35975663 24.43024959 0.40069627 26.91825423 0.45263672 29.40600586 C0.52545082 32.98317685 0.55945883 36.55894176 0.5859375 40.13671875 C0.61690521 41.24834885 0.64787292 42.35997894 0.67977905 43.5052948 C0.68303994 50.99363157 0.68303994 50.99363157 -1.16418457 53.715271 C-2.66064453 55.01147461 -2.66064453 55.01147461 -6 57 C-6.96711914 57.62374512 -7.93423828 58.24749023 -8.93066406 58.89013672 C-10.45771973 59.77596436 -10.45771973 59.77596436 -12.015625 60.6796875 C-12.86178375 61.17355453 -12.86178375 61.17355453 -13.72503662 61.67739868 C-15.5636131 62.74866388 -17.40670779 63.81187313 -19.25 64.875 C-20.5523531 65.63169735 -21.85443221 66.38886646 -23.15625 67.14648438 C-27.09963769 69.4388557 -31.04913903 71.72053941 -35 74 C-36.13244141 74.65387695 -37.26488281 75.30775391 -38.43164062 75.98144531 C-42.67820498 78.43237079 -46.92557386 80.88187662 -51.17553711 83.3269043 C-59.4137645 88.07016409 -67.6170671 92.87088475 -75.8125 97.6875 C-84.94614556 103.05515352 -94.10409215 108.3751609 -103.31494141 113.60961914 C-110.99414247 117.97902618 -118.61543736 122.44521653 -126.23779297 126.9128418 C-133.15629711 130.95605755 -140.12838496 134.88545814 -147.16845703 138.71289062 C-151.64477395 141.16754458 -155.82698341 143.7899501 -159.78515625 147.0390625 C-162 148 -162 148 -171 148 C-171 130.84 -171 113.68 -171 96 C-167.37 94.68 -163.74 93.36 -160 92 C-157.62867107 90.80155898 -155.29155937 89.53219977 -153 88.1875 C-151.62191953 87.38919779 -150.24294177 86.59244339 -148.86328125 85.796875 C-148.10096191 85.35537109 -147.33864258 84.91386719 -146.55322266 84.45898438 C-142.59907513 82.1994715 -138.60292469 80.01724959 -134.61230469 77.82299805 C-122.89885761 71.37425612 -111.34741956 64.71263965 -99.8684082 57.85473633 C-92.59040774 53.51322127 -85.26419216 49.2743156 -77.875 45.125 C-61.01888558 35.69798247 -61.01888558 35.69798247 -44.625 25.5 C-38.93185622 21.81209829 -32.93388126 18.75420722 -26.92089844 15.62988281 C-18.51505159 11.25428244 -10.53224045 6.45970786 -2.71484375 1.1015625 C-1 0 -1 0 0 0 Z " fill="#D63302" transform="translate(802,350)"/>
<path d="M0 0 C-0.38903346 8.09189599 -2.30016474 15.69382792 -4.34814453 23.49365234 C-5.6414208 28.46622693 -6.87868265 33.45299357 -8.125 38.4375 C-8.50531372 39.94691162 -8.50531372 39.94691162 -8.89331055 41.48681641 C-9.13734619 42.45925293 -9.38138184 43.43168945 -9.6328125 44.43359375 C-9.87032227 45.37444824 -10.10783203 46.31530273 -10.35253906 47.28466797 C-11.11573153 50.48535674 -11.72681929 53.70492283 -12.27294922 56.94946289 C-14.10072355 62.10442483 -17.75334658 64.75675985 -22.41796875 67.2421875 C-23.4941748 67.82532715 -24.57038086 68.4084668 -25.67919922 69.00927734 C-27.41580811 69.93281006 -27.41580811 69.93281006 -29.1875 70.875 C-31.65619752 72.21172317 -34.11952238 73.55816617 -36.58203125 74.90625 C-37.20702515 75.24755951 -37.83201904 75.58886902 -38.47595215 75.94052124 C-44.53600621 79.26407784 -50.46573044 82.7906968 -56.375 86.375 C-65.37371793 91.82655305 -74.41431709 97.19535091 -83.5 102.5 C-92.53424214 107.77758768 -101.53805378 113.10010191 -110.5 118.5 C-119.90306292 124.16356478 -129.3447723 129.7579738 -138.8125 135.3125 C-139.44736328 135.68552246 -140.08222656 136.05854492 -140.73632812 136.44287109 C-142.53819511 137.50116263 -144.34115251 138.55756832 -146.14453125 139.61328125 C-147.17940674 140.21954346 -148.21428223 140.82580566 -149.28051758 141.45043945 C-150.17794678 141.96179443 -151.07537598 142.47314941 -152 143 C-152.63639404 143.39985107 -153.27278809 143.79970215 -153.9284668 144.21166992 C-156 145 -156 145 -163 145 C-163 127.18 -163 109.36 -163 91 C-159.04 90.01 -159.04 90.01 -155 89 C-152.71804872 88.08043836 -152.71804872 88.08043836 -150.79296875 86.9609375 C-150.0561084 86.55391602 -149.31924805 86.14689453 -148.56005859 85.72753906 C-147.77711426 85.28120117 -146.99416992 84.83486328 -146.1875 84.375 C-145.33494629 83.89772461 -144.48239258 83.42044922 -143.60400391 82.92871094 C-135.12831249 78.1480163 -126.76781891 73.16844534 -118.41040039 68.18481445 C-110.6853865 63.57924325 -102.92335006 59.04304992 -95.125 54.5625 C-82.89113651 47.52958219 -70.71305591 40.40483213 -58.54618835 33.25694275 C-54.19677281 30.70186873 -49.84509523 28.15068204 -45.4921875 25.6015625 C-44.24690702 24.87215261 -43.00162707 24.1427418 -41.75634766 23.41333008 C-39.91900047 22.3371644 -38.08156211 21.26115598 -36.24383545 20.18563843 C-29.93564503 16.49365705 -23.63534705 12.78960777 -17.359375 9.04296875 C-16.33448975 8.43227539 -15.30960449 7.82158203 -14.25366211 7.19238281 C-12.34073835 6.05101185 -10.42996868 4.9060202 -8.52172852 3.75683594 C-7.68569092 3.25829102 -6.84965332 2.75974609 -5.98828125 2.24609375 C-4.89833862 1.59145142 -4.89833862 1.59145142 -3.78637695 0.92358398 C-2 0 -2 0 0 0 Z " fill="#FD893D" transform="translate(793,512)"/>
<path d="M0 0 C0.66 0.33 1.32 0.66 2 1 C0.625 2.5 0.625 2.5 -1 4 C-1.66 4 -2.32 4 -3 4 C-3 4.99 -3 5.98 -3 7 C-1.7934375 7.3403125 -1.7934375 7.3403125 -0.5625 7.6875 C5.00955734 9.74036323 10.33156958 11.93899772 14.125 16.625 C15 19 15 19 14 22 C14 21.34 14 20.68 14 20 C-3.15240578 29.85757955 -20.24717016 39.80890974 -37.3046875 49.82958984 C-43.47191909 53.45236921 -49.64215067 57.07003419 -55.8125 60.6875 C-56.41674805 61.0417807 -57.02099609 61.3960614 -57.64355469 61.76107788 C-67.8088223 67.72073854 -77.98308822 73.66486442 -88.1640625 79.59765625 C-92.13999301 81.91460869 -96.11374109 84.23524554 -100.0859375 86.55859375 C-109.95220829 92.32723345 -119.83037328 98.07348561 -129.75 103.75 C-130.62551514 104.25160645 -131.50103027 104.75321289 -132.40307617 105.27001953 C-133.61894409 105.96393799 -133.61894409 105.96393799 -134.859375 106.671875 C-135.56545898 107.0750293 -136.27154297 107.47818359 -136.99902344 107.89355469 C-137.6593457 108.25868164 -138.31966797 108.62380859 -139 109 C-139.62197266 109.36722168 -140.24394531 109.73444336 -140.88476562 110.11279297 C-146.56763431 112.49639694 -153.45810213 111.94229631 -159.12695312 109.84082031 C-162.26132285 108.22691445 -165.25132991 106.4786068 -168.25 104.625 C-169.88594116 103.66098267 -169.88594116 103.66098267 -171.55493164 102.67749023 C-174.71805952 100.80846471 -177.85938604 98.90652143 -181 97 C-183.15807639 95.72608312 -185.32226766 94.46327027 -187.48754883 93.20166016 C-189.48407693 92.03528979 -191.47284076 90.85645808 -193.4609375 89.67578125 C-199.13328751 86.31854453 -204.8501224 83.03848925 -210.5625 79.75 C-226.7591538 70.41966418 -242.91445431 61.02072445 -259 51.5 C-281.86675964 37.93323307 -281.86675964 37.93323307 -305.00537109 24.83886719 C-315.69632189 18.91103434 -315.69632189 18.91103434 -317 15 C-314.77567782 13.67865029 -312.54616381 12.36788794 -310.3125 11.0625 C-309.68666016 10.68931641 -309.06082031 10.31613281 -308.41601562 9.93164062 C-304.95555551 7.92058789 -302.04489324 6.48724335 -298 6 C-298 5.34 -298 4.68 -298 4 C-297.34 4 -296.68 4 -296 4 C-295.67 3.34 -295.34 2.68 -295 2 C-294.46971191 2.31525635 -293.93942383 2.6305127 -293.39306641 2.95532227 C-282.15863145 9.6282367 -270.89014308 16.23641969 -259.5625 22.75 C-252.34350701 26.90260107 -245.14228924 31.07196834 -238.01831055 35.38574219 C-231.5069325 39.31882529 -224.93935396 43.15628622 -218.375 47 C-217.7563205 47.36229706 -217.13764099 47.72459412 -216.50021362 48.09786987 C-213.30152088 49.97082166 -210.10249932 51.84321096 -206.90332031 53.71533203 C-202.39106002 56.35606669 -197.87952884 58.99804984 -193.37037659 61.64408875 C-190.27182632 63.46203408 -187.17076888 65.27533274 -184.06323242 67.07788086 C-178.95858818 70.04462748 -173.88698963 73.02514725 -168.96484375 76.2890625 C-161.40969679 81.25922391 -154.84849751 84.86784121 -145.47265625 84.23046875 C-136.16859211 82.21228432 -127.9071034 75.97786287 -120.02099609 70.91943359 C-115.47967043 68.0340366 -110.83419303 65.33599692 -106.1875 62.625 C-104.37543067 61.5548596 -102.56424916 60.48321461 -100.75390625 59.41015625 C-99.82723145 58.86117676 -98.90055664 58.31219727 -97.94580078 57.74658203 C-94.78487021 55.87244832 -91.62478736 53.99689105 -88.46484375 52.12109375 C-71.48476657 42.04359609 -54.47775222 32.01425403 -37.35546875 22.1796875 C-36.24179932 21.53974854 -35.12812988 20.89980957 -33.98071289 20.24047852 C-31.76814927 18.96928063 -29.55510655 17.69891622 -27.34155273 16.42944336 C-19.87748019 12.1320503 -12.50470325 7.70690251 -5.25244141 3.05981445 C-3.53705073 1.98136296 -1.77286828 0.98110186 0 0 Z " fill="#FDD5B6" transform="translate(779,492)"/>
<path d="M0 0 C1.04285156 -0.020625 2.08570313 -0.04125 3.16015625 -0.0625 C16.45573065 -0.12889488 28.22642253 4.20851498 38.125 13.25 C48.23710993 23.97936619 51.86341093 37.05916909 51.62109375 51.44140625 C50.81134107 63.97329303 45.94653468 77.68830613 36.375 86.25 C33.47152597 88.42245752 30.46980788 90.36320263 27.375 92.25 C26.0446875 93.11625 26.0446875 93.11625 24.6875 94 C14.06036369 99.74439801 -3.73669712 100.43193146 -15.42578125 97.125 C-29.57895282 91.49389799 -39.53905942 82.99950876 -46.03515625 69.26953125 C-51.24658065 56.65469056 -51.59909601 43.10899418 -46.94140625 30.20703125 C-40.92581653 16.69426739 -32.03117732 8.20930583 -18.5078125 2.34375 C-12.29746587 -0.01247908 -6.59575386 0.03190207 0 0 Z " fill="#0B0B0A" transform="translate(956.625,875.75)"/>
<path d="M0 0 C1.27617188 0.60328125 1.27617188 0.60328125 2.578125 1.21875 C2.578125 1.87875 2.578125 2.53875 2.578125 3.21875 C3.485625 3.486875 4.393125 3.755 5.328125 4.03125 C8.38047904 5.14653321 10.0353687 6.29241947 12.578125 8.21875 C14.26711847 8.93332416 15.95701292 9.64607629 17.65625 10.3359375 C19.7633017 11.30381084 21.63224181 12.45920546 23.578125 13.71875 C27.12498606 16.01174026 30.65419457 17.66552754 34.578125 19.21875 C34.578125 19.87875 34.578125 20.53875 34.578125 21.21875 C35.15788086 21.34564209 35.73763672 21.47253418 36.33496094 21.60327148 C38.56525975 22.21522004 40.41032164 23.02059184 42.46875 24.06640625 C43.17773438 24.42412109 43.88671875 24.78183594 44.6171875 25.15039062 C45.71160156 25.71016602 45.71160156 25.71016602 46.828125 26.28125 C47.57320312 26.65830078 48.31828125 27.03535156 49.0859375 27.42382812 C50.91850031 28.35185673 52.74856176 29.28482179 54.578125 30.21875 C54.578125 30.87875 54.578125 31.53875 54.578125 32.21875 C55.62806641 32.35216797 55.62806641 32.35216797 56.69921875 32.48828125 C60.20885272 33.37878539 62.60726341 34.9328735 65.640625 36.90625 C70.7323079 40.14995279 75.89449908 42.94630848 81.33203125 45.58203125 C85.90923769 47.88991272 90.35016978 50.42263761 94.79614258 52.97241211 C99.31661088 55.55381477 103.90518249 57.92381601 108.578125 60.21875 C108.578125 61.20875 108.578125 62.19875 108.578125 63.21875 C107.9809668 63.50717773 107.38380859 63.79560547 106.76855469 64.09277344 C99.32125477 67.74567549 92.20010851 71.85675416 85.08203125 76.109375 C84.19902344 76.625 83.31601562 77.140625 82.40625 77.671875 C81.6215332 78.13754883 80.83681641 78.60322266 80.02832031 79.08300781 C77.09965265 80.44053691 74.80893038 81.03831296 71.578125 81.21875 C68.79931641 80.16162109 68.79931641 80.16162109 65.9296875 78.4921875 C64.85404541 77.87891602 63.77840332 77.26564453 62.67016602 76.63378906 C61.51444337 75.95384794 60.35876411 75.27383308 59.203125 74.59375 C57.99840085 73.90142642 56.7925726 73.21102083 55.58569336 72.52246094 C53.73269422 71.46484272 51.88052336 70.40599262 50.03178406 69.34094238 C44.12710948 65.9398436 38.14399075 62.69213271 32.140625 59.46875 C30.19239274 58.41725119 28.24447181 57.36517534 26.296875 56.3125 C25.35457031 55.80332031 24.41226563 55.29414063 23.44140625 54.76953125 C18.66667181 52.18348818 13.9016993 49.57984193 9.140625 46.96875 C8.28734619 46.50243164 7.43406738 46.03611328 6.55493164 45.55566406 C5.39272095 44.91709473 5.39272095 44.91709473 4.20703125 44.265625 C3.52713135 43.89276367 2.84723145 43.51990234 2.14672852 43.13574219 C0.578125 42.21875 0.578125 42.21875 -0.421875 41.21875 C-7.36896043 41.39833452 -12.5445184 44.67699491 -18.484375 48.03125 C-20.07113037 48.90922241 -20.07113037 48.90922241 -21.68994141 49.80493164 C-23.87941034 51.01653354 -26.0665796 52.23230016 -28.25146484 53.45214844 C-33.79594039 56.54161595 -39.37267306 59.57200495 -44.95336914 62.59545898 C-49.51795951 65.07241629 -54.06456218 67.57439371 -58.58010864 70.13996887 C-60.94207955 71.47801839 -63.31292298 72.79984218 -65.68511963 74.11965942 C-67.38778851 75.07463198 -69.07858343 76.05067735 -70.76904297 77.02709961 C-72.32969482 77.89153687 -72.32969482 77.89153687 -73.921875 78.7734375 C-74.8396875 79.29405762 -75.7575 79.81467773 -76.703125 80.35107422 C-81.18742006 81.78221508 -84.15406447 79.83556468 -88.2109375 77.86181641 C-89.14679687 77.35312012 -90.08265625 76.84442383 -91.046875 76.3203125 C-92.08328125 75.75828125 -93.1196875 75.19625 -94.1875 74.6171875 C-95.25484375 74.03195312 -96.3221875 73.44671875 -97.421875 72.84375 C-99.02289062 71.9775 -99.02289062 71.9775 -100.65625 71.09375 C-111.5680538 65.14925987 -111.5680538 65.14925987 -115.421875 62.21875 C-115.421875 61.55875 -115.421875 60.89875 -115.421875 60.21875 C-114.8455835 59.92331299 -114.26929199 59.62787598 -113.67553711 59.32348633 C-101.68518852 53.16104058 -89.82698148 46.82427548 -78.11621094 40.14550781 C-65.10085366 32.73392383 -51.88703543 25.68923867 -38.69140625 18.60546875 C-37.57000244 18.00275146 -36.44859863 17.40003418 -35.29321289 16.77905273 C-33.06856981 15.58448915 -30.84252207 14.3925373 -28.61499023 13.20336914 C-23.83419367 10.64218915 -19.08806196 8.0574857 -14.4375 5.265625 C-13.70466797 4.83024414 -12.97183594 4.39486328 -12.21679688 3.94628906 C-10.90508205 3.15888432 -9.60313248 2.35483851 -8.31445312 1.53027344 C-5.05744234 -0.41986639 -3.77652522 -0.86222037 0 0 Z " fill="#D03102" transform="translate(633.421875,285.78125)"/>
<path d="M0 0 C1.06798828 -0.01160156 2.13597656 -0.02320313 3.23632812 -0.03515625 C14.28709331 0.00534747 25.13829286 2.57289988 33.5390625 10.16015625 C41.1430928 18.29808654 43.69744429 27.01363546 43.67602539 38.02294922 C43.67591209 39.97429276 43.67591209 39.97429276 43.67579651 41.96505737 C43.67069101 43.36993448 43.66547504 44.77481119 43.66015625 46.1796875 C43.65828923 47.62842764 43.65686667 49.07716842 43.65586853 50.52590942 C43.65206573 54.32346363 43.64225474 58.12097908 43.63116455 61.91851807 C43.62090215 65.79984005 43.61636059 69.68116834 43.61132812 73.5625 C43.6006303 81.16668631 43.5830518 88.77083277 43.5625 96.375 C35.3125 96.375 27.0625 96.375 18.5625 96.375 C18.5625 92.745 18.5625 89.115 18.5625 85.375 C17.9025 85.375 17.2425 85.375 16.5625 85.375 C16.31628906 85.97183594 16.07007813 86.56867188 15.81640625 87.18359375 C12.70349046 92.62392322 5.29192883 96.17187128 -0.59375 97.90234375 C-10.72705382 99.58658793 -22.52233889 100.07302039 -31.4375 94.375 C-39.20916949 88.79027089 -43.85955915 82.87133496 -45.4375 73.375 C-46.31268742 65.23575701 -45.15496521 59.13901262 -40.4375 52.375 C-33.95378735 44.53031936 -23.90337634 40.59813416 -13.93164062 39.52734375 C-8.10768742 39.17161286 -2.26949583 39.27537172 3.5625 39.3125 C4.92317544 39.31752513 6.28385267 39.32208624 7.64453125 39.32617188 C10.95056725 39.33789541 14.25651001 39.35430573 17.5625 39.375 C17.438063 37.60355842 17.30326743 35.8328423 17.1640625 34.0625 C17.09010254 33.07636719 17.01614258 32.09023438 16.93994141 31.07421875 C16.42660543 27.40316922 15.39189648 25.75764966 12.5625 23.375 C6.55142066 19.74330623 0.46623718 19.56004052 -6.4375 20.375 C-9.64799464 21.27213295 -10.78163298 22.11468764 -13.4375 24.375 C-14.85046008 27.03827728 -15.60711038 29.44421312 -16.4375 32.375 C-24.46158469 31.87811992 -32.45545622 31.35525099 -40.4375 30.375 C-41.95659949 25.81770154 -40.38552879 22.6417897 -38.4375 18.375 C-32.99750435 9.19783282 -25.0410821 4.19185539 -15.03808594 0.97705078 C-10.06385572 -0.17451247 -5.08128423 -0.05499887 0 0 Z " fill="#0D0D0D" transform="translate(734.4375,875.625)"/>
<path d="M0 0 C2.63671875 1.2578125 2.63671875 1.2578125 5.6875 3.125 C12.49542768 7.18986849 19.44202193 10.95582594 26.4375 14.6875 C36.08969548 19.85423062 45.66502827 25.13821162 55.17553711 30.5612793 C61.41045752 34.11608 67.68832911 37.58329225 74 41 C71.65291824 43.59457131 69.21163255 45.14922965 66.15234375 46.828125 C64.67556152 47.64531006 64.67556152 47.64531006 63.16894531 48.47900391 C62.10256836 49.06343262 61.03619141 49.64786133 59.9375 50.25 C57.65934584 51.51155849 55.38202774 52.7746277 53.10546875 54.0390625 C52.5193985 54.36421844 51.93332825 54.68937439 51.32949829 55.02438354 C45.09652529 58.48894599 38.92136001 62.0520344 32.75 65.625 C31.67854736 66.2427832 30.60709473 66.86056641 29.50317383 67.49707031 C24.26401147 70.51998541 19.03908689 73.56391578 13.8359375 76.6484375 C12.87075195 77.21481934 11.90556641 77.78120117 10.91113281 78.36474609 C9.09981052 79.42785832 7.29409849 80.50060813 5.49511719 81.58447266 C4.69493164 82.05159668 3.89474609 82.5187207 3.0703125 83 C2.37695801 83.4125 1.68360352 83.825 0.96923828 84.25 C-1.54160319 85.20627386 -2.50524845 84.9529422 -5 84 C-6.76670506 83.15504648 -8.5094532 82.25930574 -10.234375 81.33203125 C-11.78995117 80.49720215 -11.78995117 80.49720215 -13.37695312 79.64550781 C-14.49005859 79.04061523 -15.60316406 78.43572266 -16.75 77.8125 C-17.90435547 77.18827148 -19.05871094 76.56404297 -20.24804688 75.92089844 C-29.09406872 71.11748676 -37.80796788 66.102943 -46.48120117 60.99389648 C-54.61881192 56.2011056 -62.84618645 51.59143825 -71.12158203 47.04199219 C-74.09813164 45.39084665 -77.04892619 43.69619587 -80 42 C-77.51451756 39.18906896 -74.80022152 37.662224 -71.49609375 35.91796875 C-70.3757373 35.32266357 -69.25538086 34.7273584 -68.10107422 34.11401367 C-66.87988643 33.47183556 -65.65869493 32.82966451 -64.4375 32.1875 C-63.17691612 31.51925817 -61.91666659 30.85038526 -60.65673828 30.1809082 C-58.05626399 28.79952983 -55.4545971 27.42043913 -52.85205078 26.04296875 C-47.01290378 22.94953599 -41.19355746 19.81946748 -35.375 16.6875 C-34.30668945 16.11459229 -33.23837891 15.54168457 -32.13769531 14.95141602 C-27.24424899 12.3204129 -22.37319283 9.66168207 -17.55078125 6.90234375 C-16.7220752 6.43030518 -15.89336914 5.9582666 -15.03955078 5.47192383 C-13.52585543 4.60509206 -12.01723552 3.72930441 -10.51513672 2.8425293 C-4.16383414 -0.79441572 -4.16383414 -0.79441572 0 0 Z " fill="#FDFCFB" transform="translate(633,326)"/>
<path d="M0 0 C1.02287109 0.62068359 1.02287109 0.62068359 2.06640625 1.25390625 C2.77925781 1.67800781 3.49210938 2.10210938 4.2265625 2.5390625 C12.71844926 8.23735661 17.02792818 16.41147234 19.06640625 26.25390625 C19.4600631 31.46904303 19.41776257 36.66207307 19.359375 41.88671875 C19.35376765 43.37457854 19.34950295 44.86244393 19.34651184 46.35031128 C19.3351525 50.23343671 19.30576426 54.11621617 19.2723999 57.99920654 C19.24150479 61.97468386 19.22796531 65.95021803 19.21289062 69.92578125 C19.1808841 77.7019976 19.12819132 85.47785903 19.06640625 93.25390625 C10.48640625 93.25390625 1.90640625 93.25390625 -6.93359375 93.25390625 C-6.93770264 91.41763672 -6.94181152 89.58136719 -6.94604492 87.68945312 C-6.96550026 81.59839415 -7.00789917 75.50782649 -7.06568432 69.41701508 C-7.09986508 65.72682185 -7.12505022 62.03703866 -7.12915039 58.34667969 C-7.1334528 54.7801185 -7.16207298 51.21448086 -7.20702553 47.64820862 C-7.22619131 45.63661517 -7.22066205 43.62483493 -7.21464539 41.61315918 C-7.32972407 34.34464678 -7.79419319 28.7265801 -12.93359375 23.25390625 C-19.0745273 19.06009797 -25.76745387 19.40313165 -32.93359375 20.25390625 C-37.92197015 21.90649721 -40.18802123 24.08115893 -42.99853516 28.50195312 C-45.90531744 34.46062721 -45.53668155 40.65548584 -45.54296875 47.16015625 C-45.55797367 48.49395736 -45.57470562 49.82774005 -45.59307861 51.16149902 C-45.63650634 54.6466565 -45.65669583 58.13156347 -45.67181396 61.61694336 C-45.69147467 65.18357858 -45.73322118 68.74995334 -45.7734375 72.31640625 C-45.85053477 79.29573825 -45.8911365 86.27393448 -45.93359375 93.25390625 C-54.51359375 93.25390625 -63.09359375 93.25390625 -71.93359375 93.25390625 C-71.93359375 62.23390625 -71.93359375 31.21390625 -71.93359375 -0.74609375 C-63.68359375 -0.74609375 -55.43359375 -0.74609375 -46.93359375 -0.74609375 C-46.60359375 3.21390625 -46.27359375 7.17390625 -45.93359375 11.25390625 C-44.90234375 10.01640625 -43.87109375 8.77890625 -42.80859375 7.50390625 C-32.6347737 -4.08237573 -13.94508784 -6.96041776 0 0 Z " fill="#0C0C0C" transform="translate(584.93359375,878.74609375)"/>
<path d="M0 0 C67.32 0 134.64 0 204 0 C204.33 0.99 204.66 1.98 205 3 C204.47792969 3.1959375 203.95585938 3.391875 203.41796875 3.59375 C192.40991307 8.06637508 183.88936938 14.57322339 178 25 C177.67 25.99 177.34 26.98 177 28 C157.56365791 28.25707963 138.12766123 28.45099344 118.68997097 28.56993389 C109.66439893 28.6266311 100.6398838 28.70391024 91.61499023 28.82983398 C83.74784055 28.93955138 75.88145624 29.01045741 68.01356274 29.03497344 C63.84791079 29.04930351 59.68444811 29.08291486 55.51949883 29.16303062 C51.59617715 29.23788479 47.67593823 29.26069568 43.75197029 29.24418449 C42.31472615 29.24720304 40.87737567 29.26898877 39.44075012 29.31126022 C35.0795985 29.43325428 31.15990657 29.37374278 27 28 C24.49044732 25.40517022 22.97491177 22.96688683 21.38543797 19.73466206 C17.02729622 11.13229575 7.22399602 7.11199801 -1 3 C-0.67 2.01 -0.34 1.02 0 0 Z " fill="#F7F7F7" transform="translate(527,707)"/>
<path d="M0 0 C8.58 0 17.16 0 26 0 C26 8.58 26 17.16 26 26 C33.92 26 41.84 26 50 26 C50 32.93 50 39.86 50 47 C42.08 47 34.16 47 26 47 C26.05105641 53.31823068 26.1139996 59.63400024 26.20751953 65.95141602 C26.23572127 68.09977261 26.25693975 70.24823281 26.27099609 72.39672852 C26.29243623 75.48768119 26.33909311 78.57738922 26.390625 81.66796875 C26.39185364 82.62648239 26.39308228 83.58499603 26.39434814 84.57255554 C26.48890695 88.89108704 26.59527794 91.34772399 28.91308594 95.08325195 C32.84941469 98.69861426 36.54612473 98.11568933 41.625 98.0625 C44.38875 98.041875 47.1525 98.02125 50 98 C50 105.26 50 112.52 50 120 C37.75792829 122.44841434 22.15794854 123.70572977 11.21484375 116.828125 C4.60983407 111.37637098 1.77368791 105.29123361 0 97 C-0.36532099 93.01935905 -0.35232309 89.08053305 -0.29296875 85.0859375 C-0.28872391 83.99028473 -0.28447906 82.89463196 -0.28010559 81.76577759 C-0.263452 78.30192401 -0.22582458 74.83867464 -0.1875 71.375 C-0.17243596 69.01172721 -0.15875058 66.64844521 -0.14648438 64.28515625 C-0.11359213 58.52320838 -0.06190263 52.76170626 0 47 C-5.61 47 -11.22 47 -17 47 C-17 40.07 -17 33.14 -17 26 C-11.39 26 -5.78 26 0 26 C0 17.42 0 8.84 0 0 Z " fill="#0B0A0A" transform="translate(630,852)"/>
<path d="M0 0 C1.98 0.66 3.96 1.32 6 2 C6 2.66 6 3.32 6 4 C6.9075 4.268125 7.815 4.53625 8.75 4.8125 C11.80235404 5.92778321 13.4572437 7.07366947 16 9 C17.68899347 9.71457416 19.37888792 10.42732629 21.078125 11.1171875 C23.1851767 12.08506084 25.05411681 13.24045546 27 14.5 C30.54686106 16.79299026 34.07606957 18.44677754 38 20 C38 20.66 38 21.32 38 22 C38.86963379 22.19033813 38.86963379 22.19033813 39.75683594 22.38452148 C41.98713475 22.99647004 43.83219664 23.80184184 45.890625 24.84765625 C46.59960938 25.20537109 47.30859375 25.56308594 48.0390625 25.93164062 C48.76867187 26.30482422 49.49828125 26.67800781 50.25 27.0625 C50.99507812 27.43955078 51.74015625 27.81660156 52.5078125 28.20507812 C54.34037531 29.13310673 56.17043676 30.06607179 58 31 C58 31.66 58 32.32 58 33 C59.04994141 33.13341797 59.04994141 33.13341797 60.12109375 33.26953125 C63.63072772 34.16003539 66.02913841 35.7141235 69.0625 37.6875 C74.1541829 40.93120279 79.31637408 43.72755848 84.75390625 46.36328125 C89.33111269 48.67116272 93.77204478 51.20388761 98.21801758 53.75366211 C102.73848588 56.33506477 107.32705749 58.70506601 112 61 C112 61.99 112 62.98 112 64 C111.4028418 64.28842773 110.80568359 64.57685547 110.19042969 64.87402344 C102.74312977 68.52692549 95.62198351 72.63800416 88.50390625 76.890625 C87.62089844 77.40625 86.73789062 77.921875 85.828125 78.453125 C85.0434082 78.91879883 84.25869141 79.38447266 83.45019531 79.86425781 C80.51931028 81.22281473 78.23376958 81.82198248 75 82 C72.18945312 80.92700195 72.18945312 80.92700195 69.28125 79.23828125 C67.65014282 78.3097937 67.65014282 78.3097937 65.98608398 77.36254883 C64.82382515 76.67959192 63.661802 75.99623377 62.5 75.3125 C61.30312691 74.62292035 60.10527976 73.93502875 58.90649414 73.2487793 C57.07470577 72.20006377 55.24363207 71.15031351 53.41603088 70.09431458 C49.45097092 67.80740701 45.44867002 65.61009214 41.40234375 63.46875 C40.39300781 62.93338623 39.38367188 62.39802246 38.34375 61.84643555 C36.44271395 60.84305773 34.53788807 59.84681945 32.62890625 58.85864258 C31.78070312 58.40642334 30.9325 57.9542041 30.05859375 57.48828125 C28.94955688 56.90880737 28.94955688 56.90880737 27.81811523 56.31762695 C25.64559289 54.7431536 25.00860526 53.46316886 24 51 C23.71938721 50.38342529 23.43877441 49.76685059 23.1496582 49.1315918 C22.72946411 48.17506714 22.72946411 48.17506714 22.30078125 47.19921875 C21.98222168 46.47686035 21.66366211 45.75450195 21.33544922 45.01025391 C20.99787598 44.24374512 20.66030273 43.47723633 20.3125 42.6875 C14.83229203 30.30888328 9.11833879 18.07844468 3 6 C1.99906466 4.00046795 0.99882474 2.0005872 0 0 Z " fill="#E53D08" transform="translate(630,285)"/>
<path d="M0 0 C3.8053125 0.061875 3.8053125 0.061875 7.6875 0.125 C7.6875 8.375 7.6875 16.625 7.6875 25.125 C5.0475 25.0425 2.4075 24.96 -0.3125 24.875 C-7.75551076 24.7976152 -13.21979558 25.25495567 -18.8203125 30.55078125 C-23.05157593 35.22934967 -24.5472962 39.62745281 -24.63134766 45.83325195 C-24.65121735 46.95403641 -24.67108704 48.07482086 -24.69155884 49.22956848 C-24.70311005 50.4286937 -24.71466125 51.62781891 -24.7265625 52.86328125 C-24.74592865 54.09918503 -24.7652948 55.33508881 -24.7852478 56.60844421 C-24.83482555 59.88151967 -24.87612829 63.154561 -24.91339111 66.42779541 C-24.95352019 69.77293457 -25.00473452 73.11788373 -25.0546875 76.46289062 C-25.15229553 83.01686315 -25.23192313 89.57070739 -25.3125 96.125 C-33.8925 96.125 -42.4725 96.125 -51.3125 96.125 C-51.3125 65.105 -51.3125 34.085 -51.3125 2.125 C-43.0625 2.125 -34.8125 2.125 -26.3125 2.125 C-25.9825 6.415 -25.6525 10.705 -25.3125 15.125 C-24.8175 14.279375 -24.3225 13.43375 -23.8125 12.5625 C-17.80497807 3.56190664 -10.68950587 -0.24643765 0 0 Z " fill="#0C0C0B" transform="translate(447.3125,875.875)"/>
<path d="M0 0 C8.58 0 17.16 0 26 0 C26 31.02 26 62.04 26 94 C17.42 94 8.84 94 0 94 C0 62.98 0 31.96 0 0 Z " fill="#0C0C0C" transform="translate(469,878)"/>
<path d="M0 0 C6.27105806 2.84271698 10.0345142 7.87577604 13.2578125 13.78515625 C15.67578091 21.13981015 15.67282647 31.6392149 13.1953125 38.97265625 C9.67901128 45.52025162 5.96990744 49.17173548 -0.6171875 52.34765625 C-8.05080946 54.17260436 -15.98079768 54.68718052 -22.76953125 50.7421875 C-28.82596347 46.17105367 -33.71800529 40.02717761 -34.93286133 32.35375977 C-35.09038636 30.23709564 -35.13614354 28.15751316 -35.1171875 26.03515625 C-35.11146729 25.28967529 -35.10574707 24.54419434 -35.09985352 23.77612305 C-34.86326641 16.43873641 -32.95703843 10.90370289 -27.8671875 5.484375 C-19.9820748 -1.63601772 -10.22549021 -2.54874159 0 0 Z " fill="#F8F8F8" transform="translate(967.6171875,898.65234375)"/>
<path d="M0 0 C4.93395318 3.45558118 7.80814909 7.95250022 10.125 13.48828125 C10.53931331 16.29218785 10.55506416 19.03310866 10.5 21.86328125 C10.48839844 22.61915527 10.47679687 23.3750293 10.46484375 24.15380859 C10.27711651 30.53239372 9.90375864 35.47642586 5.35546875 40.40625 C-1.35056661 46.62503996 -6.71044635 49.04245219 -15.91015625 48.76953125 C-23.28855853 48.06960376 -28.97867228 45.07877188 -33.875 39.48828125 C-39.26508013 32.19020815 -39.11073454 22.15378742 -37.875 13.48828125 C-35.48023612 5.86579876 -30.50365543 1.5929014 -23.75 -2.32421875 C-15.66547923 -5.41168474 -7.37101451 -4.19344575 0 0 Z " fill="#F9F9F9" transform="translate(857.875,900.51171875)"/>
<path d="M0 0 C5.61 -0.0825 11.22 -0.165 17 -0.25 C18.75441406 -0.28641602 20.50882812 -0.32283203 22.31640625 -0.36035156 C23.73175845 -0.3720513 25.14712428 -0.38224007 26.5625 -0.390625 C27.27728516 -0.41108887 27.99207031 -0.43155273 28.72851562 -0.45263672 C34.781233 -0.45675982 40.01517688 1.25012653 44.53295898 5.41229248 C48.97784115 10.46382788 50.48181468 14.98453358 50.31640625 21.58984375 C49.61140776 26.96001745 47.46464522 31.40981376 43.8125 35.375 C34.58297955 40.70761182 25.77906496 40.36528744 15.4375 40.1875 C10.343125 40.125625 5.24875 40.06375 0 40 C0 26.8 0 13.6 0 0 Z " fill="#F8F8F8" transform="translate(307,865)"/>
<path d="M0 0 C5.66173542 2.53689299 10.00052718 6.78621061 12.78125 12.34765625 C13.65031926 20.01526731 13.55993055 26.24815851 8.6796875 32.46875 C4.2527329 36.8501598 -0.48845025 39.5629673 -6.78125 39.91015625 C-12.21534315 39.55926367 -16.79653267 37.64691838 -20.7578125 33.88671875 C-25.99837149 27.84934963 -26.67176875 23.33195409 -26.53125 15.48046875 C-25.97733572 9.92747814 -23.21016203 7.12306586 -19.21875 3.59765625 C-13.14069091 -0.96088806 -7.45093743 -2.19068055 0 0 Z " fill="#F6F6F7" transform="translate(517.21875,735.65234375)"/>
<path d="M0 0 C5.44159473 2.52587457 9.01251415 5.11194136 12.3671875 10.08984375 C14.24944532 15.7366172 14.17996534 21.89534359 12.1171875 27.46484375 C8.6620176 32.6475986 6.21646437 35.63937746 0.3671875 38.08984375 C-5.7691651 38.86386095 -11.60223554 39.03511233 -17.2578125 36.40234375 C-21.48628326 32.28514854 -25.2860755 28.32305374 -25.93359375 22.28515625 C-25.97431177 11.6170363 -25.97431177 11.6170363 -22.6328125 7.08984375 C-15.94288964 0.39992089 -9.48965931 -3.28054988 0 0 Z " fill="#F8F8F8" transform="translate(752.6328125,735.91015625)"/>
<path d="M0 0 C0.73605469 0.00451172 1.47210937 0.00902344 2.23046875 0.01367188 C4.02868158 0.02534858 5.82685197 0.04327989 7.625 0.0625 C8.0974049 7.31916421 8.08314998 12.15846354 3.625 18.0625 C-1.28333468 23.25956025 -7.77915735 24.87874033 -14.73828125 25.234375 C-24.38722423 24.92840625 -24.38722423 24.92840625 -27.6875 21.5625 C-29.81539183 17.14909472 -30.28096987 13.86769314 -29.375 9.0625 C-28.0625 6.1875 -28.0625 6.1875 -25.375 4.0625 C-21.77001607 2.72398803 -18.1402907 1.82587401 -14.375 1.0625 C-12.97507812 0.77826172 -12.97507812 0.77826172 -11.546875 0.48828125 C-7.67089001 -0.03201723 -3.90424916 -0.04589081 0 0 Z " fill="#F4F4F4" transform="translate(744.375,929.9375)"/>
<path d="M0 0 C3.67524818 2.31700429 6.90417792 4.87085584 8.875 8.8125 C9.60690244 13.2870854 9.83933595 17.20703961 7.453125 21.1796875 C3.4475039 25.85291211 0.35408956 28.52327289 -5.875 29.25 C-10.87407896 29.11918298 -14.34276823 26.94262285 -18.125 23.8125 C-21.56981215 20.04473671 -21.64411143 16.16352058 -21.46875 11.24609375 C-20.85342356 6.88986223 -18.95592544 4.26273797 -15.546875 1.5625 C-10.37386293 -1.79296729 -5.84738474 -2.2220062 0 0 Z " fill="#0D0D0D" transform="translate(488.125,840.1875)"/>
<path d="M0 0 C2 1 2 1 3 3 C1.68 3 0.36 3 -1 3 C-1 3.66 -1 4.32 -1 5 C-2.5390625 6.48046875 -2.5390625 6.48046875 -4.625 8.1875 C-8.08398911 11.1016218 -10.92679705 14.13092452 -13.67578125 17.71484375 C-15 19 -15 19 -18 19 C-15.23726455 9.88297301 -7.62174056 4.95563763 0 0 Z " fill="#262726" transform="translate(724,712)"/>
<path d="M0 0 C10.89 0 21.78 0 33 0 C33 0.33 33 0.66 33 1 C31.66038208 1.02187378 31.66038208 1.02187378 30.29370117 1.04418945 C26.97782722 1.10527077 23.66278101 1.17942478 20.34741211 1.26245117 C18.91295372 1.29569001 17.47836487 1.32372535 16.04370117 1.34643555 C13.98039193 1.38000271 11.91827697 1.43231413 9.85546875 1.48828125 C7.99378052 1.52755737 7.99378052 1.52755737 6.09448242 1.56762695 C3.00121683 1.73288164 3.00121683 1.73288164 1.0715332 3.53198242 C0.71792725 4.01642822 0.36432129 4.50087402 0 5 C0 3.35 0 1.7 0 0 Z " fill="#F1F1F1" transform="translate(309,930)"/>
<path d="M0 0 C0.66 0 1.32 0 2 0 C3.26237731 2.52475462 3.09856404 4.31200466 3.0625 7.125 C3.05347656 8.03507813 3.04445313 8.94515625 3.03515625 9.8828125 C3.02355469 10.58148437 3.01195312 11.28015625 3 12 C2.01 12.33 1.02 12.66 0 13 C0 8.71 0 4.42 0 0 Z " fill="#2D2C2D" transform="translate(494,847)"/>
<path d="M0 0 C0.66 0 1.32 0 2 0 C4 5.625 4 5.625 4 9 C2.68 10.32 1.36 11.64 0 13 C0 8.71 0 4.42 0 0 Z " fill="#D7D7D7" transform="translate(538,878)"/>
<path d="M0 0 C0.33 0 0.66 0 1 0 C1 3.96 1 7.92 1 12 C0.67 12 0.34 12 0 12 C0 8.04 0 4.08 0 0 Z M-2 1 C-1.67 1 -1.34 1 -1 1 C-0.67 5.95 -0.34 10.9 0 16 C-0.99 16 -1.98 16 -3 16 C-2.67 11.05 -2.34 6.1 -2 1 Z " fill="#252525" transform="translate(984,919)"/>
<path d="M0 0 C-0.556875 0.268125 -1.11375 0.53625 -1.6875 0.8125 C-4.08933398 2.00699665 -4.08933398 2.00699665 -6.625 3.625 C-9 5 -9 5 -11 5 C-11 5.66 -11 6.32 -11 7 C-12.65 7.66 -14.3 8.32 -16 9 C-16.66 8.34 -17.32 7.68 -18 7 C-15.94414903 5.82006797 -13.88163459 4.65621545 -11.8125 3.5 C-10.66394531 2.8503125 -9.51539063 2.200625 -8.33203125 1.53125 C-5.14862918 0.06830321 -3.42692535 -0.36140832 0 0 Z " fill="#F7DCD4" transform="translate(633,326)"/>
<path d="M0 0 C4.95 0 9.9 0 15 0 C12 3 12 3 9.95703125 3.29296875 C7.97135417 3.1953125 5.98567708 3.09765625 4 3 C4 2.34 4 1.68 4 1 C2.68 0.67 1.36 0.34 0 0 Z " fill="#F2F3F3" transform="translate(523,972)"/>
<path d="M0 0 C0.66 0.33 1.32 0.66 2 1 C0.92173635 2.27513763 -0.16285519 3.54492569 -1.25 4.8125 C-1.85328125 5.52019531 -2.4565625 6.22789062 -3.078125 6.95703125 C-4.92370398 8.91889671 -6.79945332 10.45669625 -9 12 C-7.54718935 6.67302761 -3.91888622 3.63597198 0 0 Z " fill="#121213" transform="translate(547,881)"/>
<path d="M0 0 C0.66 0.99 1.32 1.98 2 3 C1.125 6.6875 1.125 6.6875 0 10 C-0.66 10 -1.32 10 -2 10 C-2 12.31 -2 14.62 -2 17 C-2.33 17 -2.66 17 -3 17 C-3.34548714 10.66606918 -2.29342747 5.89738492 0 0 Z " fill="#393939" transform="translate(466,736)"/>
<path d="M0 0 C0 0.66 0 1.32 0 2 C-3.96 3.98 -7.92 5.96 -12 8 C-12 7.01 -12 6.02 -12 5 C-10.37750059 4.16180842 -8.75191503 3.3295884 -7.125 2.5 C-6.22007812 2.0359375 -5.31515625 1.571875 -4.3828125 1.09375 C-2 0 -2 0 0 0 Z " fill="#DE3B12" transform="translate(733,442)"/>
<path d="M0 0 C0.66 0.33 1.32 0.66 2 1 C0.90653119 2.34212062 -0.2001575 3.67347975 -1.3125 5 C-2.23482422 6.11375 -2.23482422 6.11375 -3.17578125 7.25 C-5 9 -5 9 -8 9 C-6.85459775 7.68712379 -5.70866567 6.37470979 -4.5625 5.0625 C-3.92441406 4.33160156 -3.28632813 3.60070312 -2.62890625 2.84765625 C-1.77458541 1.87860647 -0.91348825 0.91348825 0 0 Z " fill="#131314" transform="translate(431,880)"/>
<path d="M0 0 C-0.33 3.3 -0.66 6.6 -1 10 C-2.77706209 7.33440687 -3.87548273 4.9719385 -5 2 C-2 0 -2 0 0 0 Z " fill="#FC9659" transform="translate(793,512)"/>
<path d="M0 0 C3.7602985 0.58107632 6.53035032 1.65199496 9.8125 3.5625 C10.60269531 4.01753906 11.39289062 4.47257812 12.20703125 4.94140625 C12.79871094 5.29074219 13.39039063 5.64007813 14 6 C13.01 6.66 12.02 7.32 11 8 C11 7.34 11 6.68 11 6 C10.401875 5.855625 9.80375 5.71125 9.1875 5.5625 C7.43849596 5.1127561 5.71322977 4.57107659 4 4 C4 3.34 4 2.68 4 2 C2.68 1.34 1.36 0.68 0 0 Z " fill="#FC4A13" transform="translate(713,295)"/>
<path d="M0 0 C2.64 0 5.28 0 8 0 C8 0.66 8 1.32 8 2 C1.25 4.125 1.25 4.125 -1 3 C-0.67 2.01 -0.34 1.02 0 0 Z " fill="#EFF0F0" transform="translate(724,708)"/>
<path d="M0 0 C4.49797113 1.68673918 8.72886302 3.81673892 13 6 C9.42423881 7.1919204 8.70817048 6.74829813 5.375 5.25 C4.57835937 4.90453125 3.78171875 4.5590625 2.9609375 4.203125 C1 3 1 3 0 0 Z " fill="#FB4A13" transform="translate(738,308)"/>
<path d="M0 0 C-3.12432397 2.52349243 -6.38060496 4.27256146 -10 6 C-10 5.01 -10 4.02 -10 3 C-3.375 -1.125 -3.375 -1.125 0 0 Z " fill="#DF3A11" transform="translate(707,458)"/>
<path d="M0 0 C1.32 0.33 2.64 0.66 4 1 C4 1.66 4 2.32 4 3 C5.65 3.33 7.3 3.66 9 4 C9 4.66 9 5.32 9 6 C5.65626525 5.44271087 2.96687001 4.64826111 0 3 C0 2.01 0 1.02 0 0 Z " fill="#333232" transform="translate(472,698)"/>
<path d="M0 0 C-3.12432397 2.52349243 -6.38060496 4.27256146 -10 6 C-8.20404732 1.26521567 -5.07984355 -1.69328118 0 0 Z " fill="#DE3F16" transform="translate(759,428)"/>
<path d="M0 0 C0 0.99 0 1.98 0 3 C-4.43076923 5.09230769 -4.43076923 5.09230769 -7.3125 4.625 C-7.869375 4.41875 -8.42625 4.2125 -9 4 C-2.25 0 -2.25 0 0 0 Z " fill="#FC652D" transform="translate(507,316)"/>
<path d="M0 0 C0.99 0.66 1.98 1.32 3 2 C0.36 3.98 -2.28 5.96 -5 8 C-3.8141763 4.62496331 -2.72426311 2.35277269 0 0 Z " fill="#EAEAEA" transform="translate(733,740)"/>
<path d="M0 0 C0.99 0.33 1.98 0.66 3 1 C1.35 2.98 -0.3 4.96 -2 7 C-3.32 6.67 -4.64 6.34 -6 6 C-5.195625 5.38125 -4.39125 4.7625 -3.5625 4.125 C-0.96125481 2.25835959 -0.96125481 2.25835959 0 0 Z " fill="#151516" transform="translate(977,942)"/>
<path d="M0 0 C2.31 0.33 4.62 0.66 7 1 C7.33 1.99 7.66 2.98 8 4 C6.68 4.33 5.36 4.66 4 5 C4 4.34 4 3.68 4 3 C3.34 3 2.68 3 2 3 C2 2.34 2 1.68 2 1 C1.34 0.67 0.68 0.34 0 0 Z " fill="#CFD0D0" transform="translate(488,706)"/>
<path d="M0 0 C3.7910119 1.44950455 7.3874638 3.15172566 11 5 C8 6 8 6 4.375 4.75 C1 3 1 3 0 0 Z " fill="#FC4E17" transform="translate(727,302)"/>
<path d="M0 0 C0.99 0 1.98 0 3 0 C3.33 3.3 3.66 6.6 4 10 C1.7448078 7.7448078 1.02276532 5.9952413 0 3 C0 2.01 0 1.02 0 0 Z " fill="#1F1F1F" transform="translate(798,981)"/>
<path d="M0 0 C0.66 0.66 1.32 1.32 2 2 C0.3125 3.5625 0.3125 3.5625 -2 5 C-4.75 4.6875 -4.75 4.6875 -7 4 C-4.68143083 2.45428722 -2.49361571 1.20381448 0 0 Z " fill="#29292A" transform="translate(745,950)"/>
<path d="M0 0 C2 1 2 1 3 3 C1.68 3 0.36 3 -1 3 C-1 3.66 -1 4.32 -1 5 C-1.99 5.33 -2.98 5.66 -4 6 C-4.66 5.34 -5.32 4.68 -6 4 C-4.02 2.68 -2.04 1.36 0 0 Z " fill="#2D2D2E" transform="translate(724,712)"/>
<path d="M0 0 C0.33 0.99 0.66 1.98 1 3 C-2.22791555 5.1519437 -3.28400809 5.20086443 -7 5 C-2.25 1.125 -2.25 1.125 0 0 Z " fill="#FC571C" transform="translate(704,369)"/>
<path d="M0 0 C0.66 0.33 1.32 0.66 2 1 C1.67 1.99 1.34 2.98 1 4 C-1.64 4.33 -4.28 4.66 -7 5 C-4.702779 3.25728062 -2.40133271 1.60088848 0 0 Z " fill="#FD682D" transform="translate(545,294)"/>
<path d="M0 0 C0.33 1.32 0.66 2.64 1 4 C-0.65 5.32 -2.3 6.64 -4 8 C-4 4.09161134 -2.49432124 2.88405893 0 0 Z " fill="#222223" transform="translate(920,890)"/>
<path d="M0 0 C0.66 0.99 1.32 1.98 2 3 C-0.25 5.0625 -0.25 5.0625 -3 7 C-5.3125 6.75 -5.3125 6.75 -7 6 C-6.21625 5.566875 -5.4325 5.13375 -4.625 4.6875 C-1.78301625 3.10779753 -1.78301625 3.10779753 0 0 Z " fill="#303031" transform="translate(762,766)"/>
<path d="M0 0 C0.33 0.99 0.66 1.98 1 3 C-2.22791555 5.1519437 -3.28400809 5.20086443 -7 5 C-2.25 1.125 -2.25 1.125 0 0 Z " fill="#FCCDA8" transform="translate(645,571)"/>
<path d="M0 0 C3.465 1.485 3.465 1.485 7 3 C6.67 3.66 6.34 4.32 6 5 C2.73045798 4.43628586 1.17424117 3.50037734 -1 1 C-0.67 0.67 -0.34 0.34 0 0 Z " fill="#FC7325" transform="translate(618,519)"/>
<path d="M0 0 C0 0.66 0 1.32 0 2 C-2.31 3.32 -4.62 4.64 -7 6 C-7.66 5.34 -8.32 4.68 -9 4 C-2.25 0 -2.25 0 0 0 Z " fill="#FC5A20" transform="translate(679,384)"/>
<path d="M0 0 C1.32 0.33 2.64 0.66 4 1 C3.34 3.97 2.68 6.94 2 10 C1.67 10 1.34 10 1 10 C0.67 6.7 0.34 3.4 0 0 Z " fill="#121213" transform="translate(752,960)"/>
<path d="M0 0 C0.33 0 0.66 0 1 0 C1.1875 2.875 1.1875 2.875 1 6 C0.01 6.66 -0.98 7.32 -2 8 C-2 4.23312136 -1.76462683 3.08809695 0 0 Z " fill="#343435" transform="translate(529,761)"/>
<path d="M0 0 C0 0.66 0 1.32 0 2 C-2.5614657 4.29648649 -3.47967572 5 -7 5 C-6 2 -6 2 -4.0625 0.8125 C-2 0 -2 0 0 0 Z " fill="#2E2E2E" transform="translate(491,712)"/>
<path d="M0 0 C2.31 0.33 4.62 0.66 7 1 C6.67 1.99 6.34 2.98 6 4 C4.02 3.34 2.04 2.68 0 2 C0 1.34 0 0.68 0 0 Z " fill="#ECECEC" transform="translate(526,708)"/>
<path d="M0 0 C0.99 0.33 1.98 0.66 3 1 C0.31158141 3.25245881 -1.64641875 4.88213958 -5 6 C-5 5.34 -5 4.68 -5 4 C-4.34 4 -3.68 4 -3 4 C-2.67 3.01 -2.34 2.02 -2 1 C-1.34 0.67 -0.68 0.34 0 0 Z " fill="#DC3A13" transform="translate(671,476)"/>
<path d="M0 0 C3.96 1.98 3.96 1.98 8 4 C7.67 4.66 7.34 5.32 7 6 C4.625 5.25 4.625 5.25 2 4 C1.34 2.68 0.68 1.36 0 0 Z " fill="#FC5917" transform="translate(577,381)"/>
<path d="M0 0 C0.66 0.66 1.32 1.32 2 2 C1.8125 4 1.8125 4 1 6 C0.01 6.66 -0.98 7.32 -2 8 C-1.125 2.25 -1.125 2.25 0 0 Z " fill="#343334" transform="translate(285,358)"/>
<path d="M0 0 C-0.66 1.32 -1.32 2.64 -2 4 C-3.98 4 -5.96 4 -8 4 C-2.7826087 0 -2.7826087 0 0 0 Z " fill="#FC6C2E" transform="translate(470,336)"/>
</svg>
